<svg xmlns="http://www.w3.org/2000/svg" viewBox="0 0 500 400"><path fill-rule="evenodd" clip-rule="evenodd" fill="#ABABAB" d="M352.1,4.8c-2.6,0.1-5.3-0.2-7.6,1.6c-2.2,1.7-4.4,3.2-6.7,4.8c-0.3,0.2-0.6,0.2-0.9,0.4c0.1-0.3,0.1-0.7,0.3-1c2-2.5,4-5,5.9-7.6c0.7-0.9,1.1-1.9,1.6-2.9c-1.8,0-3.5,0-5.3,0c-0.1,0.5-0.1,1.2-0.4,1.6c-3.9,5.1-7.8,10.2-11.7,15.2c-0.3,0.4-0.9,0.7-1.4,1c-0.1-0.6-0.4-1.3-0.2-1.8c1.4-5.3,1.2-10.6,0.9-16c-1.9,0-3.7,0-5.6,0c0,2.6,0.1,5.2-0.2,7.8c-0.5,4.4-0.9,8.9-2,13.2c-0.8,3.2-2.5,6.1-4,9.1c-3.1,6.3-7.7,11.5-13.3,15.6c-3.6,2.7-7.4,5.4-11.5,7.1c-4.3,1.8-9,2.8-13.6,3.6c-4.3,0.8-8.7,1.3-13,1.1c-4.7-0.2-9.4-1.3-14.1-2.1c-2.9-0.5-5.8-1.3-8.5-2.2c-2.9-1-5.8-2.3-8.6-3.5c-1.8-0.8-3.6-1.8-5.5-2.5c-1.1-0.4-1.7-1.1-1.4-2.2c1.6-7.9,0.3-15.9-0.1-23.8c0-0.9,0-1.8,0.1-2.6c0-0.3,0.4-0.5,0.6-0.8c0.2,0.2,0.6,0.4,0.7,0.7c3.5,9.3,10.2,15.9,18.1,21.5c2.2,1.6,5,2.5,7.7,3.3c6.9,2,13.9,2.7,21.1,0.9c5.8-1.5,10.5-4,14.1-8.8c0.3-0.5,1.5-0.8,2-0.6c4.8,1.9,6.7,1.5,10.3-2.2c2.1-2.1,2.2-4.6,2-7.2c-0.2-2.2-0.2-4.1,1-6.1c0.8-1.3,0.8-3.3,0.7-4.9c-0.2-3.1-0.8-6.2-0.8-9.3c0-0.9,1.3-1.8,1.9-2.8c0.5-0.7,0.9-1.4,1.3-2.1c-1.9,0-3.8,0-5.6,0c-0.2,0.7-0.4,1.5-0.6,2.2c-0.3,0.9-0.5,1.8-0.9,2.7c-0.2,0.5-0.5,1-0.8,1.5C297.7,6,297,5.6,296.9,5c-0.2-1.7-0.3-3.4-0.4-5.1c-2.9,0-5.8,0-8.8,0c-0.2,2,1.4,2.8,2.6,3.7c0.4,0.3,0.9,0.5,1.1,0.8c0.3,0.5,0.5,1.2,0.7,1.8c-0.6,0-1.3,0-1.9-0.1c-1.4-0.4-2.8-1.2-4.3-1.4c-0.8-0.1-1.9,0.4-2.7,1c-1.2,0.8-2.2,0.8-3.4,0c-0.6-0.4-1.6-0.7-2-0.5c-0.5,0.3-0.9,1.2-0.9,1.9c-0.2,2.1-0.2,2.1-2.1,1.2c-0.4-0.2-1.4,0.3-1.5,0.6c-0.3,1-0.3,2.1-0.5,3.2c-0.1,0.6-0.5,1.1-0.8,1.7c-0.4-0.3-1-0.6-1.2-1.1c-0.4-0.9-0.6-2-0.9-2.9c-0.3-0.8-0.8-1.4-1.2-2.1c-0.5,0.5-1.1,0.9-1.5,1.5c-0.5,0.8-0.8,1.7-1.4,2.4c-0.3,0.4-0.9,0.4-1.4,0.7c0-0.5-0.2-1.1-0.1-1.6c0.1-0.5,0.8-0.8,0.9-1.2c0.2-0.6,0.1-1.3,0.2-1.9c-0.6,0-1.2-0.1-1.7-0.1c-0.4,0.1-0.7,0.4-1.1,0.6c-0.9,0.6-1.6,0.8-1.4-0.7c0.1-1.1-0.6-1.2-1.4-0.9c-0.3,0.1-0.6,0.5-1,0.5c-0.8,0.1-1.6,0-2.3,0.1c0.4-0.5,0.8-0.9,1.1-1.4c0.4-0.6,0.6-1.3,0.9-2c-0.6-0.1-1.3-0.4-1.8-0.3c-1,0.2-1.6-0.1-1.8-1.1c-0.2-0.9-0.3-1.7-0.5-2.6c-4.7,0-9.4,0-14.1,0c-0.5,0.5-1,1.4-1.4,1.4c-0.6-0.1-1.1-0.9-1.7-1.4c-1.3,0-2.5,0-3.7,0c0.2,2.5,2.2,3.5,3.9,4.5c1.4,0.9,3.3,1.3,5,1.6c1.4,0.3,2,0.9,1.9,2.2c-0.1,0.8-0.1,1.7-0.5,2.4c-2.3,5.1-2,10-0.1,15.2c1.8,4.9,5.3,7.9,9.8,9.5c2.4,0.8,5.2,0.6,7.9,0.6c4,0,7.2-1.7,9.3-5.3c0.7-1.2,1.7-1.1,2.7,0.1c1.1,1.3,2.2,2.6,3.4,3.9c1.5,1.5,3.2,1.2,4.9,0.5c0.4-0.2,0.9-0.2,1.4-0.3c-0.3,0.3-0.5,0.7-0.8,1c-3.6,3.2-8.1,4.1-12.6,4.7c-5.1,0.7-10.2,0.2-15.1-1.6c-5.8-2.1-11.4-4.8-15.7-9.4c-2.3-2.5-4-5.5-5.9-8.4c-0.6-0.9-1.1-1.9-1.5-2.9c-0.4-1.3,0-2,1.5-1.5c2,0.7,3.9,0.4,5.5-1.2c2.1-2,1.7-4.6-1-5.4c-3.7-1-6.6-3-8.3-6.5c-0.6-1.2-0.7-2.6-1.1-3.9c-2,0-4,0-5.9,0c-0.2,5.4-0.4,10.8-0.5,16.2c-0.1,8.6,0,17.2-0.1,25.7c0,1.9-1.3,2.4-2.9,1.6c-2.4-1.4-4.9-2.7-7.3-4c-3.1-1.7-6.2-3.4-9.2-5.2c-3.1-1.8-6-3.8-9.1-5.7c-1.7-1.1-1.7-1.7-0.4-3.1c2.2-2.5,4.6-4.8,6.4-7.6c1.8-2.8,2.9-6,4.3-9.1c1.3-2.8,1.7-5.7,1.2-8.8c-0.9,0-1.9,0-2.8,0c0.5,5-1.4,9.3-3.7,13.6c-0.3,0.6-1.2,0.9-1.8,1.3c-0.2-0.6-0.5-1.2-0.6-1.8c-0.3-3.1-2.6-5.4-6.5-6.3c-3.5-0.8-6.5-0.2-8.7,2.9c-1,1.3-1.4,7-0.5,8.3c0.7,1,1.9,0.8,2.6-0.4c0.5-0.8,1.2-1.7,2-2.2c1.9-1.2,4.1,0,4.5,2.3c0.4,2.3-0.7,4.1-2.2,5.6c-0.5,0.5-1.9,0.5-2.5,0.1c-4.1-2.3-8-4.8-12.1-7.1c-3.2-1.8-6.5-3.5-9.7-5.3c-0.7-0.4-1.4-1.2-1.6-1.9c-1.3-4.4-7.9-8.9-13.2-6.9c-1.8,0.7-3.9-0.5-4.3-2.2c-2.2,0-4.4,0-6.6,0c0.5,2.3,2.7,2.2,4.2,2.9c1.5,0.8,2.3,1.3,1.5,3.1c-0.5,1.1,0.2,1.8,1.4,1.8c1.4,0,2.7-0.2,4-0.2c2,0,3.1,1.5,2.6,3.4c-1.1,3.9-2.3,5-6.3,5c-4.3,0.1-8-1.6-11.6-3.7c-5-2.9-9.4-6.4-13.4-10.5c-0.5-0.5-0.7-1.2-1.1-1.8c-1.9,0-3.7,0-5.6,0c0.3,0.6,0.5,1.4,1,1.8c6.4,5.1,12,11,16.9,17.4c3.2,4.2,5.7,8.9,8.4,13.4c0.2,0.3,0.2,1.1-0.1,1.4c-0.3,0.3-1,0.5-1.4,0.4c-3.8-1.4-7.6-2.9-11.3-4.4c-0.5-0.2-1-0.8-1.2-1.3c-0.6-2.5-0.9-5-1.7-7.4c-0.7-2.2-1.8-4.3-3-6.3c-1.9-3.2-4.6-5.8-7.8-7.6c-2.5-1.4-5-2.7-8.1-2.7C99.6,4.6,94.9,5,90.7,7.8c-0.9,0.6-1.9,1.3-2.6,2.2c-1.2,1.6-2.5,1.2-4,0.6c-3.8-1.5-7.5-3-11.3-4.1c-3.8-1.2-7.9-1.8-11.7-3.1C60,3,59.3,1.2,58.5,0c-8.3,0-16.7,0-25,0c-0.3,3-0.4,2.9-3.4,3.5C26.4,4.2,22.8,5.2,19.1,6c-0.7,0.2-1.6,0-2.4-0.2c-1-0.3-2-0.8-3-1.2C9.3,2.4,4.7,3.1,0,3.4c0,2.5,0,5,0,7.5c0.7,0.3,1.3,0.6,2,1c-0.7,0.5-1.3,1-2,1.5c0,1.8,0,3.5,0,5.3c1.7-0.8,3.3-1.6,5-2.3c0.7-0.3,1.7-0.8,2.2-0.5c0.5,0.3,0.8,1.3,0.9,2.1c0.9,5.5-4,8.4-8.2,8.5c0,0.9,0,1.9,0,2.8c3.2,0.1,6.3,0.2,9.5,0.4c4.6,0.3,7.9-2,10.8-5.2c2.2-2.4,3.7-5.1,3.3-8.4c-0.2-1.1-0.5-2.3-1-3.3c-0.9-1.7-0.4-2.8,1.5-3.1c2.5-0.4,4.9-0.8,7.4-0.9c1,0,2.2,0.6,2.9,1.4c2.7,2.9,6,3.9,9.5,2.2c1-0.5,1.7-1.6,2.2-2.6c0.7-1.3,1.5-2,3-1.9C51.4,8,53.6,8,55.8,8.3c1.9,0.2,3.3,1.4,3.5,3.2c0.3,3.1,0.3,6.2,0.4,9.3c0,0.4-0.4,0.9-0.7,1.1c-0.2,0.1-0.7-0.2-1-0.4c-1.2-0.7-2.4-1.7-3.7-2.3c-2.4-1.1-4.9-2.2-7.5-3c-1.3-0.4-2.9-0.6-4.1-0.2c-3.1,1-6.5,1.6-8.6,4.6c-0.6,0.8-0.9,1.8-1.2,2.8c-0.9,3.7-1.7,4.2-5.4,5c-2.9,0.6-5.8,1.7-8.6,2.6c-1.7,0.5-3.4,1-4.9,1.8c-3.8,1.9-7.4,4-11.2,6C1.9,39.3,1,39.6,0,40c0,1.9,0,3.7,0,5.6c2.3,0.5,3.3-1.5,4.8-2.5c4.6-3,9.1-5.9,14.5-7.3c0.8-0.2,1.5-0.8,2.2-1.1c1.2-0.4,1.9-0.1,2.1,1.2c0.4,3-0.1,3.5-3.1,3.4c-3-0.1-6.1-0.5-8.7,1.4c-1.2,0.9-2.4,2-3.5,3.1c-0.9,0.9-1.6,2-2.5,2.8c-2.9,2.5-2.9,5.7-2.2,9c0.2,0.8,1,1.6,1.6,2.2c0.8,0.8,1,1.4,0.4,2.5c-2.1,4.1-2.2,8.1,1.1,11.7c0.9,1,1,2-0.3,2.9c-1.6,1.1-3.2,2.2-4.9,3.3c-0.4,0.3-1.1,0.2-1.6,0.3c0,1.7,0,3.3,0,5c2.2,0.2,2.8-2,4.4-2.9c1.6-0.9,3-2.3,4.5-3.3c0.5-0.4,1.2-0.6,1.9-0.6c2.9,0.1,2.9,0.6,2.3,3.4c-0.5,2.6-1.1,5-2,7.5c-0.7,1.9,0.3,3.3,2.9,4.5c1.3,0.6,2,1.5,2.2,2.9c0.1,0.7,0.5,1.5,1,2c1.3,1.5,2.8,2.9,4.2,4.3c1.2,1.1,0.9,2.1-0.5,2.7c-2.1,0.8-4.3,1.3-6.3,2.1c-4.8,2-8.6,5.3-11.1,10c-0.8,1.6-1.2,3.5-2,5.1c-0.3,0.6-1,1-1.5,1.5c0,2.6,0,5.2,0,7.8c0.5,0.4,1.4,0.9,1.4,1.3c0.3,3.3,2.2,5.9,3.8,8.6c0.2,0.3,0.2,0.8,0.3,1.2c-0.4-0.1-0.8-0.1-1.1-0.3c-1.5-0.8-2.9-1.6-4.4-2.4c0,4.7,0,9.4,0,14.1c2.4,0.8,4.8,1.5,7.2,2.3c0.8,0.3,1.7,0.7,2.5,0.8c4.5,0.1,9.1,0.6,13.6-0.1c5.6-0.9,10.5-3.7,14.3-8.1c4.1-4.9,5.6-10.7,4.5-16.9c-0.7-4.2-3.2-7.8-6.8-10.3c-2.9-2.1-6.2-3.5-9.9-3.2c-5.1,0.4-9.7,2.4-12,7.1c-1.6,3.3-2.7,6.9-1.2,10.9c1.3,3.3,3.2,5.6,6,7.4c2.3,1.4,5.7,1,7.5-0.8c1.3-1.4,1.3-3.2-0.1-4.5c-0.7-0.6-1.3-1.3-2-1.9c-1.8-1.5-2.2-3.7-1.3-5.5c0.9-1.5,2.7-3,4.4-3.5c3.1-0.9,6.7,1.7,8.2,4.6c2.5,4.9,0.7,8.9-2.2,12.6c-1.5,1.9-3.7,3.2-6.3,3.1c-2-0.1-4.1,0.3-6.1-0.2c-2.4-0.6-4.8-1.4-6.8-2.8c-3.5-2.4-6.1-5.6-7.5-9.9c-0.8-2.3-1.4-4.5-1.3-7c0.2-3.7,1.5-7.1,3.7-10c5.8-7.7,13.8-10.2,23.1-9.3c1,0.1,2.2,1.1,2.8,2.1c2,3.3,3.3,7.1,5.6,10.2c3.1,4.1,6.7,7.8,10.4,11.4c1.7,1.7,3.9,3.1,6,4.5c1.5,1,2.4,2.2,2.5,3.9c0.2,4.3-0.1,8.5-1.8,12.5c-0.8,1.9-1.1,4-2.1,5.8c-1.5,2.7-3.3,5.3-5.2,7.7c-4,5.2-9.1,9.1-14.9,11.8c-5.2,2.4-10.7,4-16.3,5.4c-6.2,1.6-12.4,1-18.6,1.5c0,1.5,0,2.9,0,4.4c4.8,0,9.7,0,14.5-0.1c1,0,2.1-0.2,3.1-0.4c3.4-0.8,6.7-1.6,10-2.6c3.2-1,6.6-2,9.6-3.5c3.6-1.9,7.2-4.1,10.4-6.6c6.3-4.9,10.7-11.4,13.4-19c1.6-4.6,2-9.3,2.2-14.1c0.1-1.8,0.6-2.4,2.4-2c0.7,0.1,1.3,0.5,1.9,0.6c3.3,0.8,6.6,2.1,10,2.2c8.6,0.2,17.2,1.1,25.6-1.2c4.5-1.2,9.3-1.8,13.6-3.6c4-1.6,7.8-4,11.2-6.6c4.7-3.6,8.9-7.8,12.3-12.8c1.8-2.8,3.6-5.6,5.2-8.5c1.1-2.2,1.9-4.6,2.7-6.9c1.3-4,2.5-8,3.7-12c0.5-1.8,1-3.7,1.5-5.5c0.3-1.3,1-1.5,2.2-0.8c2,1.1,4.6,0.6,5.6-1c3.4-5.2,3.2-10.7,0.5-16.1c-1.2-2.4-0.3-4.3,2.3-4.2c4.2,0.1,7-1.7,8.9-5.5c2.3-4.4-0.1-11.1-4-13.5c-0.5-0.3-1.4-0.3-1.8,0c-0.4,0.3-0.6,1.3-0.4,1.7c1,2.1,0.2,3.9-1.3,5.2c-2,1.8-4.2,3.1-5.8,2c-2.1-1.4-4.2-2.8-6-4.6c-2.1-2.1-3.7-4.6-5.5-6.9c-0.4-0.5-0.4-1.2-0.6-1.8c0.6-0.2,1.2-0.5,1.8-0.5c4-0.2,8.2,0.2,12.1-0.5c5-0.8,9.9-2.3,14.7-3.9c3-1,5.8-2.5,8.5-4.1c2.2-1.4,3.8-2.7,6.4-0.5c2.8,2.3,6.3,3.8,9.4,5.7c3,1.7,6,3.5,9,5.1c3.3,1.8,6.7,3.3,9.9,5.2c0.7,0.4,1.4,1.9,1.2,2.7c-0.8,3.2-1.9,6.4-4.1,9c-3,3.4-6.7,5.8-11,7.4c-5.4,2-10.6,2-15.4-1c-5.4-3.3-5.5-12.5-0.9-16.1c1.5-1.1,5.1-1.4,6.7-0.4c1.9,1.2,2.7,3.4,1.7,5.4c-0.6,1.2-1.8,2.3-2.7,3.3c-0.7,0.8-0.8,1.5,0.3,1.9c3.1,1.2,9.1-1.5,9.7-4.7c0.7-3.2,0.8-6.4-1.8-9.2c-2.6-2.8-7.7-4.4-10.8-2.9c-3.3,1.6-6,3.7-7.9,7c-3.7,6.3-2.3,11.4,1.6,16.3c2.9,3.7,6.9,5.5,11.6,6c6.2,0.6,11.8-0.8,16.7-4.6c5-3.8,8-9.1,9.8-15c0.3-1.1,0.8-2.1,2.1-1.7c1.3,0.4,2.5,1,3.7,1.5c4.2,1.8,8.3,3.8,12.5,5.4c2.9,1.1,5.9,1.9,9,2.5c5,1.1,10,2.5,15.2,2.4c4.7-0.2,9.3-0.3,13.9-1.5c5.2-1.4,10.4-2.9,15-5.7c4.6-2.8,8.7-6.4,13.1-9.5c0.5-0.4,1.4-0.5,2.1-0.5c0.8,0,1.6,0.3,2.4,0.2c3.8-0.9,6.7-3.3,9.4-6.1c2.9-3,5.9-6,8.9-8.9c1.4-1.3,7-1.6,8.7-0.6c0.3,0.2,0.6,0.5,0.9,0.9c2.2,3.6,1.8,6.1-1.4,8.8c-1,0.9-2.1,2.1-1.2,3.3c0.7,1,2,1.9,3.2,2c3.5,0.4,7.9-2.8,8.7-6.6c1.6-7.6-0.5-12.2-7.8-14.5c-7.6-2.4-13.6,0.2-18,6.7c-3.1,4.7-6.6,9-11.3,12.3c-0.4,0.3-0.9,0.3-1.3,0.4c0.2-0.4,0.3-1,0.6-1.3c6.3-6.3,11.4-13.6,16.6-20.8c0.8-1.1,2.3-1.7,3.5-2.4c0.9-0.6,1.9-1,2.8-1.6c3.6-2.9,7.3-5.4,12.2-5.1c3.4,0.2,5.1,1.6,5.6,5.1c0.4,2.8,1,3.1,3.3,1.6c0.2-0.1,0.4-0.2,0.5-0.3c3.6-2.3,4.3-8.8,1.2-11.5C356.2,5.6,354.4,4.6,352.1,4.8L352.1,4.8z M48.1,73.5c3.3-0.2,6-1.8,8.3-3.9c1.4-1.3,2.2-3.1,3.1-4.7c0.1-0.2-0.2-0.7-0.3-1.1c-0.3,0.2-0.7,0.4-0.9,0.6c-0.8,1-1.4,2.1-2.3,3c-2.8,2.8-5.9,4.6-10,3.6c-1-0.2-2.3-0.6-1.9-2c0.5-1.6,1.6-0.3,2.4-0.1c2.5,0.8,4.3-0.2,4.9-2.6c0.1-0.5,0.4-1.2,0.8-1.4c1.4-0.9,2.7-1.9,4.2-2.5c3.7-1.5,4.4-4.8,1.5-7.7c-1.6-1.6-3.5-1.6-5.4-1.6c-3.8,0.2-5.5,0.9-7.4,3.9c-1.4,2.2-2.7,4.6-3.7,7C39.6,69,42.8,73.8,48.1,73.5L48.1,73.5z M331.4,5.9c1-2,1.8-3.9,2.7-5.9c-1.3,0-2.5,0-3.7,0c-0.2,1.7-0.4,3.4-0.5,5.1c0,0.4,0.2,0.9,0.5,1.2C330.5,6.4,331.2,6.2,331.4,5.9L331.4,5.9z M2.1,344.3c1.7-3.2,0.8-6.4,0-9.7c-0.3-1.2-0.9-1.8-2.1-1.8c0,4.4,0,8.7,0,13.1C0.7,345.4,1.7,345,2.1,344.3L2.1,344.3z M266.7,4.4c0.4,0.3,1.5,0,2.3-0.2c0.7-0.2,1.2-0.8,1.8-1.1c1.6-0.7,3.7-0.8,4.2-3.1c-3.5,0-7.1,0-10.6,0C263.9,2.1,265.4,3.3,266.7,4.4L266.7,4.4z M268.2,2.4c0.1,0,0.1,0.1,0.2,0.1c-0.1,0.1-0.1,0.1-0.2,0.2c0,0-0.1,0-0.1-0.1C268.2,2.6,268.2,2.5,268.2,2.4L268.2,2.4z M4.8,99.1c0.9-3.5-0.5-6.8-2.4-9.7c-0.5-0.7-1.5-1.1-2.3-1.7c0,2,0,4,0,5.9c1.9,0.5,2.2,2.2,2.3,3.7c0.1,1.4-0.3,2.9-0.8,4.2c-0.2,0.5-1,0.8-1.5,1.1c0,1.4,0,2.7,0,4.1c0.6-0.2,1.5-0.2,1.7-0.6C2.8,104,4.1,101.6,4.8,99.1L4.8,99.1z M8.7,242.4c1-1.4,0.8-2.9-0.1-4.4c-1.2-1.9-2.9-2.4-5-2.1c-1.2,0.2-2.4,0.4-3.7,0.6c0,3.1,0,6.2,0,9.4C3.6,246.5,6.6,245.5,8.7,242.4L8.7,242.4z M451.8,6.3c3.5-0.4,6.3-3.4,5.7-6.3c-3.8,0-7.5,0-11.3,0c-0.2,0.7-0.4,1.3-0.6,2c-0.9-0.3-1.9-0.6-1.6-2c-1.1,0-2.3,0-3.4,0c0.3,0.9,0.5,2,1.1,2.7C444.4,5.7,447.8,6.8,451.8,6.3L451.8,6.3z M8.7,164.5c0.3-3.1-1.3-5.7-3.9-7.5c-0.6-0.4-1.7-0.2-2.5-0.3c0.2,0.8,0.4,1.5,0.7,2.3c0.4,1.3,1.4,2.7,1.1,3.7c-0.5,1.7-2.2,2.5-4,2.5c0,2.6,0,5.2,0,7.8c1.1-0.3,2.1-0.6,3.2-1C6.8,170.8,8.4,167.9,8.7,164.5L8.7,164.5z M160.8,3.7c2.7,2.1,5.7,3.6,9,3.9c5.6,0.5,10-2.1,14-5.6c0.4-0.4,0.4-1.3,0.6-1.9c-2,0-4,0-5.9,0c-0.2,2.2-2.3,2.4-3.6,2.8c-3.4,1.1-6.8,0.3-9.8-1.5c-0.3-0.2-0.4-0.9-0.6-1.3c-2.2,0-4.4,0-6.6,0C157.7,2.1,159.5,2.7,160.8,3.7L160.8,3.7z M16.8,316.3c-3.2-4.3-6.9-8.3-10.6-12.3c-1.7-1.8-3.5-3.7-6.2-3.8c0,2.1,0,4.2,0,6.2c0.5,0.1,1.2,0.1,1.6,0.5c4.3,3.8,8.8,7.4,11.8,12.5c2.3,4,3.2,8.3,3.7,12.7c0.5,3.8,0,7.6-0.9,11.4c-1.9,8.4-5.9,15-13.9,18.7c-0.7,0.3-1.5,0.3-2.2,0.5c0,12,0,24.1,0,36.1c0,0.9,0.2,1.1,1.1,1.1c3.9-0.1,7.8,0,11.7,0c0.1-1.3-0.3-2.2-1.5-3c-4.7-2.8-7.2-7.3-7.9-12.6c-0.5-3.9-0.7-7.9,1.2-11.6c1-2.1,1.7-4.4,3-6.2c3.3-4.6,8.1-8,10.6-13.4c1.7-3.8,3.4-7.5,3.8-11.6c0.4-5.8,1.2-11.7-1.3-17.2C19.3,321.7,18.6,318.7,16.8,316.3L16.8,316.3z M4.4,269.1c2.4-3.1,2.3-3.2,5.1-0.5c2.2,2.1,3.8,2.2,6.4,0.6c1.5-1,3-1.4,4.9-0.9c2.2,0.6,4.4,1,6.5-0.3c3.4-2.1,4.7-5.4,3.9-9.4c-0.3-1.3,0-2.6,0-4c0-1.8,0.2-3.6-0.1-5.4c-0.3-2-1.1-4-1.3-6c-0.1-1,0.2-2.5,0.9-3.2c2.7-2.7,3-5.9,2.6-9.4c-0.3-2.6-1.7-4.5-4-5.7c-2-1.1-4.2-1.7-5.6-3.9c-2.1-3.2-5-3.8-8.5-2.3c-1.6,0.7-2.4,0.2-2.6-1.5c-0.2-1.7-1.3-2.4-2.8-3c-1.2-0.5-2.5-1.2-3.1-2.2c-2-3.2-2.8-3.8-6.7-3c0,5.7,0,11.5,0,17.2c0.5,0.3,1,0.6,1.5,1c-0.5,0.4-1,0.8-1.5,1.2c0,0.9,0,1.9,0,2.8c0.2,0,0.5,0.1,0.6,0c1.4-0.8,2.5-1.2,3.6,0.8c0.4,0.9,1.6,0,1.9-0.9c0.3-0.8,0.2-1.7,0.3-2.6c0.1-1.2,2.7-3.5,3.8-3.4c0.2,0,0.6,0.2,0.6,0.4c0,0.4-0.1,0.8-0.3,1.1c-0.6,0.8-1.4,1.5-1.8,2.3c-0.6,1-0.6,1.9,1,2.1c0.5,0.1,0.9,0.5,1.4,0.7c0,0,0.1,0.1,0.1,0.1c1.7,0.3,3.2,1.1,4.5,2.3c0.2,0.2,1.1-0.6,1.7-0.8c0.4-0.2,0.9-0.1,1.4-0.2c-0.2,0.4-0.2,0.9-0.5,1.2c-1,1.3-2.3,2-3.9,2.2c-0.5,0.1-1.3,0.9-1.3,1.4c0,0.5,0.7,1.3,1.3,1.4c2.4,0.6,3.7,2.6,5.3,4.2c0.2,0.2,0.2,0.4,0.3,0.7c-0.2,0-0.5,0-0.7-0.1c-2-0.6-3.9-0.9-5.7,0.8c-0.6,0.5-1.8,0.4-2.8,0.4c-1.3-0.1-2.2,0-2.6,1.5c-0.1,0.5-0.6,1-1.1,1.1c-1.4,0.5-1.7,1.3-1.3,2.7c0.2,0.7,0,1.6-0.1,2.4c-0.7-0.5-1.4-0.9-2-1.4c-0.3-0.2-0.4-0.6-0.5-1c-0.2-2-1.4-2.5-3.2-2.3c0,7.7,0,15.4,0,23.1C2.1,271.8,3.4,270.4,4.4,269.1L4.4,269.1z M25.5,235.6c0.4-0.9,1-1.8,1.7-2.6c0.3-0.3,0.9-0.4,1.3-0.5c0.1,0.4,0.2,0.9,0.3,1.3c0,0,0,0.1,0,0.1c-2.1,2-1.6,4.9-2.4,7.4c-0.2,0.6-0.7,1.1-1.1,1.6c-0.6-0.7-1.2-1.3-1.9-2.1C24.2,238.8,24.8,237.2,25.5,235.6L25.5,235.6z M28.7,253.1c-0.7,0.8-1.3,1.4-1.9,2.1c-0.2-0.4-0.7-0.8-0.6-1c0.3-0.9,0.8-1.6,1.3-2.5C27.9,252,28.2,252.4,28.7,253.1L28.7,253.1z M20.5,262.4c0.6-0.3,1.3-0.6,1.8-1.1c1.4-1.4,2.7-2.9,4.1-4.3c0.3-0.3,0.7-0.3,1.1-0.5c0.1,0.4,0.4,1,0.3,1.3c-1.5,2.1-3.1,4.2-4.8,6.1c-0.3,0.4-1.3,0.3-1.5,0.3c-0.6,0-0.7,0-0.8,0c-0.8-0.3-1.6-0.5-2.4-0.8C19.1,263.1,19.8,262.8,20.5,262.4L20.5,262.4z M13,265.4c0.9-0.4,1.9-0.8,2.9-1.1c0.4-0.1,1,0,1.4,0c-0.2,0.4-0.3,1-0.7,1.2c-1,0.7-2.1,1.3-3.4,2.1c-0.7-0.5-1.2-0.9-1.7-1.3C12,266.1,12.5,265.7,13,265.4L13,265.4z M498.1,0c-7.3,0-14.6,0-21.9,0c-0.9,1-1.7,2-2.7,2.9c-0.8,0.7-1.8,1.2-2.7,1.8c0-1-0.1-2-0.1-3.1c0-0.5,0-1-0.1-1.6c-1.7,0-3.3,0-5,0c-0.4,5.2-1.5,10.2-6.3,13.2c-2.1,1.3-4.7,2-7.1,2.4c-2.1,0.4-4.3,0.5-6.4,0c-3.1-0.8-6.4-1.7-9.1-3.3c-4.3-2.7-8.3-6-12.3-9.2c-1-0.8-1.5-2-2.2-3.1c-4,0-7.9,0-11.9,0c1.2,5.7-0.1,11.1-2.1,16.4c-1.4,3.6-3.9,6.5-7.3,8.2c-3.8,1.9-8.1,2.4-12,0.1c-1.6-0.9-3-2.7-3.8-4.4c-1.6-3.3-2.2-8.6,1-11.5c2.2-2,5.5-3.8,8.5-1.5c1.3,1,2.6,1.9,3.9,2.7c0.4,0.3,1.1,0.6,1.3,0.5c0.4-0.2,0.8-0.9,0.7-1.4c-0.2-3-0.4-6.1-0.7-9.1c-0.8,0-1.7,0-2.5,0c0,0.1,0,0.1,0,0.2c0,0.8,0.1,1.6,0.1,2.4c-0.8-0.9-1.6-1.7-2.3-2.6c-5.4,0-10.8,0-16.2,0c-0.3,0.8-0.4,1.7-0.9,2.4c-2,2.7-2.8,5.7-2.9,9c0,1.1-0.5,2.1-0.8,3.2c-0.4-1.1-1-2.1-1.1-3.2c-0.2-3.4-0.5-6.7,1.2-9.9c0.2-0.4,0.2-1,0.3-1.5c-1.1,0-2.3,0-3.4,0c-0.1,0.5-0.3,1.1-0.5,1.6c-1.2,3.1-2.5,6.2-1.3,9.5c1.1,3.4,2.4,6.8,3.9,10.1c2.2,4.9,6.1,8,11,9.8c6.2,2.3,12.5,2.4,18.5-1.1c4.2-2.4,7.4-5.8,9.4-10.1c2.3-4.8,3.2-10.1,3.7-15.5c0-0.6,0.4-1.2,0.6-1.8c0.6,0.3,1.4,0.5,1.9,0.9c2.6,2.2,4.9,4.6,7.6,6.6c5,3.8,10.6,6.7,16.7,8.1c5.5,1.3,11.3,0.9,16.4-1.7c5.8-3,11.3-6.6,17.1-9.7c2.9-1.6,6.2-2.6,9.6-2c1.9,0.3,3.7,2.2,3.9,4c0.2,1.9-1.1,2.9-2.5,3.8c-0.7,0.4-1.4,0.7-2,1.2c-0.4,0.3-1,0.8-1,1.2c0,0.4,0.6,0.9,1.1,1.1c3.9,1.7,7.5,1.1,10.8-1.6c1.3-1,2.4-2.2,3.6-3.3c0-2.7,0-5.4,0-8.1C499.4,2.1,498.8,1,498.1,0L498.1,0z M89.1,173.7c-2.7-4.2-6.5-7.2-11.6-7.9c-5.6-0.8-10.7,0.9-15.4,3.9c-4.5,2.8-8.3,6.3-10.8,11.2c-2.2,4.2-3.9,8.5-4,13.1c-0.2,8.7,0.2,17.5,0.4,26.2c0.1,2.9,0.6,5.7,0.9,8.5c0,0.5-0.4,1.1-0.7,1.6c-0.3-0.4-0.7-0.8-0.9-1.3c-1.7-3.8-3.2-7.8-5.3-11.4c-3.4-5.8-7.8-10.8-14.1-13.7c-3.2-1.5-6.7-3.1-10.2-3.6c-5.5-0.8-11.1-1.2-16.5,1c-0.3,0.1-0.7,0-1.1,0c0,1.1,0,2.3,0,3.4c2-0.2,4-0.3,6-0.6c2.9-0.6,5.8-0.9,8.6,0c0.9,0.3,1.8,0.5,2.7,0.6c4,0.1,7.3,2,10.6,4c5.6,3.5,9.6,8.5,12.4,14.3c1.7,3.4,3,7.1,3.9,10.9c0.9,3.7,1.2,7.3,1.4,11c0,0.7-0.4,1.4-0.6,2.1c-0.6-0.4-1.3-0.8-1.6-1.3c-1.8-2.6-4.5-3.5-7.5-2.3c-1.9,0.8-2.2,2-1.1,3.8c1.1,1.8,2.3,3.6,3.2,5.5c0.6,1.3,1,2.8,1.1,4.3c0.5,4.9-0.1,9.8-1.9,14.4c-1.5,3.9-3.9,7.3-7.3,9.9c-5.4,4-11.4,6.3-18.1,6.7c-4,0.2-8,0.4-12,0.6c0,3.2,0,6.5,0,9.7c4.9,0.7,9.8,0.2,14.7,1.7c4.4,1.3,8.9,2.4,12.7,5.2c3.5,2.6,6.6,5.6,5.4,10.7c-0.1,0.4,0.2,1.1,0.4,1.2c0.5,0.2,1.2,0.1,1.6-0.1c2.7-1.7,4.7-4,6.2-6.8c1.7-3.1,1.5-4.3-1.3-7.7c-1.9-2.3-4.7-3.3-7.5-4.2c-4.1-1.2-8.1-2.6-12.4-2.6c-3,0-5.9-0.3-8.9-0.5c-0.4,0-0.7-0.3-1.1-0.4c0.3-0.3,0.5-0.7,0.8-0.8c2-0.6,4-1.2,6-1.6c3.7-0.7,7.5-1.1,11.1-2.1c7.8-2.2,13.7-7.4,18.3-13.8c3.2-4.4,5.7-9.3,7.6-14.5c1.9-5,2.9-10.1,3.3-15.3c0.4-5.8,1.5-11.4,4.5-16.3c1.7-2.7,3.8-5.2,6.1-7.4c1.5-1.4,3.7-1.9,5.8-1.2c1.4,0.5,2.6,1.4,3.9,2.1c1.6,0.8,2.9,0.2,3.8-1.1c1-1.5,0.5-5.8-0.6-7.1c-1.4-1.6-3.3-2.4-5.3-3.4c-4.2-2-7.7-0.5-11,1.5c-5.5,3.3-8.9,8.3-10.8,14.4c-0.1,0.4-0.6,0.7-1,1c-0.3-0.4-0.7-0.7-0.8-1.1c-0.5-3.2-1.3-6.5-1.4-9.7c-0.2-7-0.3-14.1-0.1-21.1c0.1-5.5,1.6-10.7,4.8-15.2c2.6-3.7,6.1-6.2,10.9-5.6c1.9,0.3,3.8,1.2,5.7,1.8c2.4,0.7,3.5-0.3,3.3-2.7c-0.1-0.6,0.3-1.2,0.5-1.8c0.6,0.3,1.2,0.5,1.6,0.9c1.8,1.9,1.7,4.3,2,6.7c0.1,1.2,0.9,2.7,1.9,3.4c0.6,0.4,2.1-0.4,3.2-0.7c0.5-0.2,1.1-0.5,1.6-0.7c0.2,0.6,0.5,1.3,0.5,1.9c-0.6,3.9-1.9,7.6-5.3,10.1c-0.3,0.3-0.8,0.5-0.9,0.8c-0.2,0.5-0.2,1-0.2,1.5c0.5,0,1.1,0.1,1.4-0.1c1.9-1.2,4-2.4,5.6-3.9c3.6-3.4,6.4-7.5,5.5-12.7C91.8,178.4,90.5,175.9,89.1,173.7L89.1,173.7z M50.6,254.4c0.3-0.1,0.5-1,0.5-1.5c-0.1-1.6-0.2-3.2-0.5-4.8c-0.3-1.4-0.2-2.5,0.6-3.8c0.6-0.9,0.5-2.4,0.6-3.6c0.2-1.6-0.2-3.1,2.1-3.9c1.1-0.4,1.8-2.6,2.2-4.1c0.7-2.6,1.1-5.1,2.9-7.2c1.4-1.7,2.5-3.6,3.7-5.4c1.9-2.6,4-5.1,7.6-4.4c1.7,0.4,3.2,1.8,4.8,2.8c0.2,0.1,0.2,0.6,0.3,1c-0.3,0.1-0.6,0.1-0.9,0.2c-3.1-0.9-6.2-1.1-8.6,1.2c-2.3,2.2-4.3,4.8-6.1,7.4c-1.3,1.9-2.1,4.1-3.1,6.2c0,0.1-0.1,0.2-0.1,0.3c-0.6,3.3-1.2,6.6-1.8,9.9c-0.8,4.2-1.5,8.5-2.3,12.7c-0.1,0.7-0.4,1.3-0.5,2c-0.4,4.1-2.3,7.7-4.1,11.3c-1,2.1-2.9,3.8-4.4,5.6c-0.2,0.3-0.8,0.2-1.2,0.4c0-0.5-0.1-1,0.2-1.4c2-3.4,3.9-6.8,4.6-10.8c0.1-0.5,0.6-1.2,1-1.2c1.5-0.2,1.6-1.1,1.6-2.2c0-0.9,0.1-1.9-0.2-2.8C49.2,256.7,48.4,255.3,50.6,254.4L50.6,254.4z M257.8,10.5c0,0,0.2,0.3,0.2,0.3c-0.4,0.7-0.9,1.3-1.6,2.3c-0.4-0.9-0.6-1.2-0.6-1.2C256.5,11.4,257.2,10.9,257.8,10.5L257.8,10.5z M261.4,30c-1.2,0.8-2.4,1.5-3.6,2.1c-0.5,0.3-1,0.4-1.6,0.6c-0.1,0.1-0.3,0.2-0.4,0.3c-1.4-1.2-3-2.1-4-3.5c-1.6-2.2-2.9-4.7-4.3-7.1c-0.3-0.5-0.2-1.1-0.3-1.7c0.6,0.1,1.2,0.1,1.7,0.3c2.6,1.1,3.6,3.4,4.5,5.8c1.2,3.1,2.9,3.6,5.6,1.9c0.6-0.4,1.3-0.6,2-0.6c0.6,0,1.2,0.5,1.8,0.7C262.3,29.2,261.9,29.7,261.4,30L261.4,30z M264.5,29.3c-0.1,0-0.2-0.1-0.3-0.1c0.6-0.7,1.2-1.5,1.9-2.2c0.2-0.2,0.7,0,1,0.1c0.1,0,0.1,0.3,0.3,0.9C266.4,28.4,265.5,28.8,264.5,29.3L264.5,29.3z M271.3,18.2c-0.2-0.4-0.7-0.9-0.6-1.3c0.1-0.6,0.6-1.1,0.9-1.6c0.3,0.4,0.5,0.8,0.8,1.3C272,17.1,271.6,17.7,271.3,18.2L271.3,18.2z M277.6,31.4c-0.3-0.1-0.7-0.7-0.7-1c0-0.3,0.6-0.6,1-0.7c0.7-0.1,1.3,0,2,0c0.1,0.2,0.1,0.3,0.2,0.5c2.1-0.8,4.2-1.6,6.3-2.3c0.6-0.2,1.4-0.5,1.9-0.4c1.8,0.5,2.9-0.4,4-1.7c0.8-1,2-1.6,2.9-2.6c0.7-0.8,1.2-1.8,1.5-2.8c0.3-1,0.2-2.2,0.5-3.2c0.1-0.3,0.6-0.6,1-0.8c0.2,0.4,0.7,0.7,0.7,1.1c0,1.9,0,3.8-0.4,5.6c-0.2,0.9-1.4,1.5-2.1,2.2c-0.8,0.8-1.9,1.5-2.2,2.5c-0.6,1.5-1.4,2.2-3,2.2c-1,0-2-0.4-2.9-0.2c-1.5,0.2-3.2,0.4-4.5,1.2C281.7,32.1,279.7,31.9,277.6,31.4L277.6,31.4z M20.7,17.7c-0.1,4.5-3.6,7.6-7.3,9c-0.4,0.1-0.8,0.2-1.2,0.1c-0.4-0.1-0.8-0.4-1.1-0.6c0.3-0.4,0.5-1,0.9-1.1c4.1-1.3,5.5-4.8,6.9-8.3c0.2-0.6,0.7-1.1,1.1-1.6c0.3,0.6,0.5,1.3,0.8,1.9C20.7,17.3,20.7,17.5,20.7,17.7L20.7,17.7z M48.8,3.1c-0.4,0-0.9-0.4-1.3-0.7c0.5-0.3,1-0.5,1.6-0.8c0.7,0.3,1.2,0.6,1.8,0.9C50.2,2.7,49.5,3,48.8,3.1L48.8,3.1z M142.8,18.8c1.8-0.1,3.6,0.2,5.3-0.1c1.2-0.2,2.4-1,3.5-1.7c0.7-0.4,1.4-1.3,1.8-1.2c0.6,0.2,1.4,1.1,1.4,1.7c0.1,0.8-0.4,2-1,2.3c-1.7,0.9-3.6,1.3-5.1,1.8c-2.3-0.5-4.2-0.8-6.2-1.3c-0.4-0.1-0.6-0.6-0.9-0.9C142.1,19.2,142.4,18.8,142.8,18.8L142.8,18.8z M123.8,37.7c0.1-0.7,0.4-1.3,0.6-1.9c0.5-1.1,1.3-1.3,2.4-0.8c2.5,0.9,5,1.8,7.6,2.6c1.8,0.6,3.8,0.7,5.5,1.6c1,0.5,2.1,1.8,2.3,3c0.9,5.4,1.5,10.9,2.3,16.7c-0.5,3.4-1.1,7.1-1.8,10.8c-0.5,2.4-1.2,4.8-1.8,7.2c-0.9,3.2-3.9,6-7.2,6.2c-3.2,0.2-6.3-0.1-9.5-0.2c-1.4,0-2.8-0.1-3.8,1.3c-0.1,0.2-0.8,0.4-0.9,0.3c-0.3-0.4-0.6-0.9-0.6-1.3c-0.1-3,0.4-6.1-0.2-9c-0.7-3.7-2.1-7.3-3.6-10.8c-1-2.4-2.6-4.4-4-6.7c-0.7-1.2,0-1.9,0.8-2.7c2.6-2.5,5.3-4.9,7.5-7.6C121.6,43.9,123.5,41.1,123.8,37.7L123.8,37.7z M81,84.4c0-0.2-0.3-0.5-0.5-0.7c0.2,0.1,0.5,0.2,0.7,0.2c0.7-0.1,1.6,0,1.9-0.4c0.3-0.4,0.1-1.3,0.1-2c0-0.1-0.1-0.3-0.2-0.4c-0.4-0.7-0.8-1.5-1.2-2.2c0.7,0.2,1.5,0.6,2.2,0.7c0.5,0,1.3-0.2,1.6-0.6c0.2-0.4,0.1-1.3-0.2-1.7c-1-1.2-1.1-1.9,0.4-2.8c1.3-0.8,1-2.1,0.2-3.1c-0.7-1-1.1-1.8-0.5-3.1c0.6-1.3-0.6-1.9-1.7-2.3c-0.5-0.2-0.8-0.5-1.3-0.8c0.4-0.3,0.7-0.7,1.1-0.9c0.9-0.4,1.2-0.9,0.6-1.8c-0.2-0.3-0.2-0.7-0.3-1.1c0.5,0,1-0.2,1.5-0.1c2,0.7,3.2,2.8,2.8,4.9c-0.5,2.2-0.5,4.3,0.6,6.3c0.2,0.4,0.2,0.9,0.2,1.4c0.1,1.6,0.2,3.1,0.1,4.7c-0.1,0.8-0.4,1.6-1,2.2c-1.8,1.9-2.8,3.9-2.5,6.6c0.3,2.6-2.8,4.9-5.6,4.3c-1.2-0.2-2.3-0.6-3.4-1c-0.4-0.2-0.7-0.8-1.1-1.1c0.4-0.2,0.7-0.5,1.1-0.7c1-0.5,2-0.9,3-1.4c0.1,0.2,0.2,0.3,0.2,0.5c0.5-0.2,1.3-0.5,1.3-0.7C81.4,86.2,81.2,85.3,81,84.4L81,84.4z M88.3,47.2c-0.2-0.8-0.4-1.7-0.2-2.4c0.3-1,0.8-2.1,1.6-2.6c0.4-0.3,1.7,0.4,2.3,1c3,2.6,5.9,5.2,8.7,7.9c1.6,1.5,1.2,3-0.9,3.6c-2.7,0.7-5.5,1.3-8.3,1.8c-0.9,0.2-1.8,0.3-2.9,0.5c-1.3,0-1.4-1.1-0.8-1.9C90,52.5,89.2,49.9,88.3,47.2L88.3,47.2z M83.2,93.5c2.1-0.9,4.4-1.5,6.2-2.7c4.2-2.9,5.1-6.9,3.6-11.8c-0.6-2-0.7-4.6,0.1-6.4c1.6-3.6,0-7.3-2.7-9.6c-0.5-0.4-0.7-1-1.1-1.5c0.6-0.2,1.3-0.5,1.9-0.7c4-0.9,8.1-1.7,12.1-2.7c2.1-0.6,3.2-0.4,4.5,2.1c1.4,2.7,2.9,5.4,3.9,8.2c1,2.8,1.4,5.7,1.9,7.6c-0.7,9.6-3.9,17-10.9,22c-6.2,4.4-10.7,4.2-17.2-0.7c-0.8-0.6-1.7-1.2-2.5-1.8c-0.4-0.3-0.7-0.7-1.1-1.1C82.3,94.1,82.8,93.8,83.2,93.5L83.2,93.5z M85.4,101.8c5,3.2,10.2,3.5,15.7,1.7c3.5-1.2,6.1-3.6,8.4-6.3c1.2-1.5,2.2-3.1,3.3-4.7c0.3-0.4,0.8-0.6,1.2-0.8c0.2,0.4,0.6,0.9,0.5,1.2c-0.9,2-1.6,4.2-2.8,6c-3.1,4.3-7.3,7.2-12.4,8.7c-1.3,0.4-2.8,0.3-4.2,0.4c-4.4,0.2-7.9-1.5-10.9-4.5c-0.4-0.4-0.5-1.2-0.8-1.8C84,101.7,84.9,101.5,85.4,101.8L85.4,101.8z M100.1,14.6c1.1-2.3,3.2-2.7,5.3-2.6c7.1,0.3,13.1,5.6,13.7,12.3c0.1,0.6-0.2,1.2-0.4,1.9c-0.6-0.2-1.2-0.3-1.8-0.5c-1.6-0.6-3.2-1.3-4.8-2c-2.7-1.1-5.4-2.1-7.9-3.5c-1.6-0.8-2.9-2.2-4.1-3.5C99.7,16.3,99.8,15.2,100.1,14.6L100.1,14.6z M88.4,22.4c0.3,0.3,0.7,0.5,0.9,0.8c2.6,3.8,5.6,5.9,10.4,4.5c0.6-0.2,1.3,0.2,1.9,0.3c-0.4,0.6-0.7,1.4-1.2,1.7c-1.1,0.6-2.4,0.8-3.1,1c-4.1-0.1-8.3-3.6-9.1-7.1C88.1,23.3,88.4,22.8,88.4,22.4L88.4,22.4z M60.1,24.5c3-4,3.5-8.5,2.7-13.3c-0.2-1.3,0.6-1.9,1.8-1.6c4.8,1.3,9.7,2.7,14.5,4.1c0.7,0.2,1.4,0.3,2.1,0.4c2.7,0.5,3.8,1.9,3.8,4.5c-0.1,5.6,4.1,11.8,9.3,13.8c4.3,1.6,9.3-0.6,11-4.8c0.7-1.8,1.3-2,3.1-1.1c3.2,1.6,6.5,3.2,9.6,5c0.6,0.4,1.1,1.7,1,2.5c-0.5,4.4-2.4,8.4-5.4,11.7c-1.4,1.5-3,2.8-4.6,4.2c-1.1,1-2.2,0.8-3.3-0.2c-3.7-3.3-7.4-6.5-11.1-9.7c-1.9-1.6-4.1-2.9-6-4.6c-1.1-0.9-1.6-2.4-2.5-3.5c-1.7-2.2-4.1-3-6.8-3.2c-2.8-0.2-5.5-1-8.2-1.5c-1.5-0.2-3-0.3-4.5-0.4c-1.8-0.1-3.5,0-5.3-0.1C59.8,26.6,59.3,25.6,60.1,24.5L60.1,24.5z M53.4,99.7c0.6-0.4,1.5-0.7,1.9-1.3c0.9-1.1,1.7-2.4,2.3-3.7c0.3-0.6,0.1-1.4,0.2-2.2c0.1,0,0.2-0.1,0.3-0.1c-0.4-1.5-0.9-2.9-1.3-4.4c-0.1-0.6,0-1.3,0-2c0.5,0.5,1,0.8,1.3,1.4c2,3.1,1.8,6.3,0.2,9.6c-0.3,0.7,0,1.6,0,2.5c1.2-0.2,2.5-0.4,3.7-0.7c0.2,0,0.3-0.5,0.4-0.6c0.4-0.3,0.9-0.6,1.4-0.9c0,0.6,0,1.2-0.1,1.7c0,0.3-0.5,0.5-0.5,0.8c-0.1,0.4-0.1,0.9-0.1,1.4c0.5,0,1.2,0.2,1.4-0.1c1-1.3,1.9-2.7,2.8-4.1c0.3-0.4,0.6-0.8,0.9-1.2c0.3,0.5,0.6,1,0.8,1.5c0.1,0.2-0.1,0.4-0.1,0.6c0.1,0.5,0.3,1,0.4,1.5c0.3-0.4,0.5-0.8,0.8-1.2c0.3-0.4,0.5-0.8,0.8-1.1c0.3,0.4,0.7,0.8,0.8,1.2c0.7,2.6-0.6,4.6-2.2,6.3c-1.6,1.7-3.7,1.9-5.9,0.7c-1.1-0.6-2.3-1.4-3.4-1.4c-1.7,0.1-3.5,0.6-5.1,1.3c-3.6,1.8-6.3,1.4-8.9-1.6c-2.1-2.4-3.6-5.4-6.5-7c-0.2-0.1-0.3-1-0.2-1c0.4-0.2,1.1-0.5,1.4-0.3c0.9,0.4,1.7,1,2.4,1.7c1,1,1.8,1,3,0.2c2-1.5,4.6-0.4,5.1,2.1c0.1,0.4,0.3,0.7,0.5,1.1C52.7,100.2,53,99.9,53.4,99.7L53.4,99.7z M52.3,94.2c0-0.2,0.1-0.5,0.1-0.7c0.1,0.1,0.3,0.2,0.3,0.2c0,0.2,0,0.5-0.1,1.3C52.4,94.5,52.3,94.4,52.3,94.2L52.3,94.2z M43.1,28c0.1,0.1,0.3,0.2,0.4,0.3c-0.1,0.2-0.2,0.4-0.3,0.6c-0.1-0.1-0.3-0.3-0.3-0.4C42.9,28.4,43,28.2,43.1,28L43.1,28z M24.3,60c2.1-0.7,4.2-1.4,6.3-1.8c2.1-0.4,2-0.7,1.6-2.7c-0.4-2.5-1.5-4.2-3.3-5.7c-0.2-0.2-0.1-0.7-0.1-1.1c0.4,0,0.9-0.2,1.1,0c1.5,1.4,2.9,1.3,4.3-0.1c0.2-0.2,0.6-0.3,0.9-0.2c2.3,0.5,2.7-0.7,2.6-2.7c0-0.5,0.8-1.3,1.3-1.4c1.5-0.2,2-0.9,1.2-2.2c-0.1-0.2-0.4-0.4-0.4-0.6c0-0.5,0.1-1,0.1-1.5c0.4,0.3,0.9,0.5,1.2,0.9c0.5,0.7,0.9,1.6,1.4,2.4c0.2,0.3,0.5,0.4,0.8,0.6c0.2-0.3,0.6-0.7,0.6-1c-0.2-1.5-0.7-2.9-0.8-4.4c-0.2-2.5-0.1-5-0.1-7.5c0-0.1,0.2-0.2,0.3-0.3c0.1,0.2,0.2,0.4,0.2,0.5c0.2,1.9,0.3,3.8,0.6,5.7c0.1,0.8,0.7,1.6,1.3,2.2c0.3,0.3,1.3,0.1,1.7-0.2c0.7-0.7,1.1-0.7,1.8,0.1c1.1,1.3,2.9,2.1,3,4.1c0,0.1,1.5,0.4,1.8,0.1c1-1.3,1.9-2.7,2.8-4.1c0.7-1.3,1.3-2.7,2-4c0.1-0.3,0.8-0.2,1.2-0.4c-0.1,0.4-0.1,0.9-0.2,1.3c-0.8,2.1-1.7,4.3-2.3,6.4c-0.4,1.3,0.3,2.2,1.5,3c1.5,0.9,2.8,1.9,4.6,1.8c0.4,0,0.8,0.4,1.1,0.7c0.2,0.2,0.3,0.7,0.5,0.8c1.8,0.8,2.2,2.5,2.8,4.2c0.4,1.1,0.5,1.6-0.6,2c-0.2,0.1-0.4,0.1-0.6,0.2c-0.5,0.6-1.1,1.3-1.6,1.9c0.7,0.2,1.4,0.5,2.2,0.7c0.3,0.1,0.7,0,1.1,0c0,0,0-0.1,0-0.1c1,0.1,2.1,0.2,3.1,0.4c0.3,0,0.5,0.4,0.7,0.5c-0.2,0.2-0.4,0.6-0.7,0.7c-0.9,0.2-1.8,0.2-2.6,0.5c-0.8,0.3-1.5,0.9-2.2,1.4c0.4,0.6,0.9,1.1,1.2,1.8c0.3,0.7,0.7,1.4,0.8,2.1c0.2,1.5,0.4,2.9,1.9,3.8c0.3,0.2,0.6,0.9,0.5,1.3c0,0.2-0.7,0.6-1.1,0.6c-1.8,0-2.9,0.8-3.8,2.2c-0.8,1.3-2.2,1.3-3-0.1c-0.7-1.1-1.3-2.1-2.8-1.1c-1.6,1.1-1.9,2.4-0.6,3.8c1.8,2,3.7,3.9,5.6,5.9c0.3,0.3,0.4,0.9,0.5,1.3c-0.5-0.2-1-0.2-1.4-0.5c-1.2-1-2.2-2.2-3.5-3.1c-0.6-0.4-1.4-0.6-2.1-0.8c-0.4-0.1-1,0.1-1.2-0.1c-2.8-2.4-4.9,0.2-7.1,1.1c-0.8,0.3-1.4,1.4-1.7,2.2c-0.6,1.6-1,3.3-1.5,4.9c-0.1,0.4-0.4,0.6-0.7,0.9c-0.2-0.4-0.6-0.7-0.6-1.1c0-1.3,0.2-2.6,0.2-3.9c0-2.4-0.6-4.2-2.7-5.8c-1.4-1-2-3-4-3.5c-0.5-0.1-1.1-0.5-1.6-0.3c-1.8,0.5-3.5,1.2-5.3,1.9c-0.5,0.2-1.1,0.5-1.6,0.5c-0.8,0-1.5-0.4-2.2-0.6c0.3-0.7,0.4-1.5,0.8-2c1.5-1.7,1.3-2.5-0.8-3.5c-0.4-0.2-0.9-1.1-0.8-1.5c0.3-1.4-0.3-1.9-1.5-1.9c-1.5,0-2.9-0.1-2.8-2.1c0-0.1-0.1-0.2-0.1-0.3C20.9,61.4,22.5,60.6,24.3,60L24.3,60z M13.3,74.6c-1.8-1.4-3.6-2.9-4.9-4.6c-0.6-0.8-0.3-2.4-0.1-3.5c0.2-1.1,0.6-2.1,1.1-3.1c0.5-0.9,1.2-1.1,1.9-0.1c1.3,1.8,2.6,3.5,3.8,5.3c0.4,0.6,0.3,1.4,0.5,2.1c0.2,0.8,0.5,1.5,0.8,2.2c0.3,0.5,0.8,0.9,1.2,1.4c-0.6,0.4-1.2,0.8-1.7,1.1C14.7,75.1,13.8,75.1,13.3,74.6L13.3,74.6z M34.6,99.3c-1.3,2.8-7.6,3.8-9.7,1.6c-0.4-0.4-0.8-1.1-0.9-1.6c-0.1-1.9-0.9-3-2.9-3.4c-1.5-0.3-2.3-1.4-2-3c0.2-1.3-0.3-2-1.6-2.4c-1.9-0.6-2.5-2.9-1.1-4.4c0.9-1,0.8-1.7,0.1-2.7c-1.4-2.1-0.5-4.2,2-4.7c0.3-0.1,0.9,0.1,1,0.4c0.5,1.2,0.8,2.4,1.2,3.6c0.2,0.5,0.2,1.1,0.6,1.4c1,0.8,0.9,1.3,0,2.1c-0.3,0.3-0.3,1-0.5,1.5c0.6-0.1,1.3,0.1,1.7-0.2c1.2-0.9,2.2-1.5,3,0.4c0.1,0.1,1.5,0,1.9-0.4c1-1,1.8-2.1,3.3-0.7c0.2,0.2,1.1-0.3,1.7-0.4c0.5-0.1,0.9,0.1,1.4,0.1c-0.2,0.4-0.3,0.9-0.6,1.1c-1.7,1.1-2.7,2.6-2.6,4.6c0,0.5,0.6,1.2,1.1,1.5c0.9,0.5,1.1,0.9,0.5,1.8c-1.1,1.7-0.6,2.5,1.5,2.5C34.8,98.1,35,98.5,34.6,99.3L34.6,99.3z M35.9,103.4c0-0.6,0.4-1.3,0.9-1.8c0.9-0.9,1.9-1.7,2.9-2.6c0.7,0.4,1.2,0.6,1.5,1c1.5,2.2,2.9,4.4,4.3,6.6c0.1,0.2,0,0.8-0.1,0.8c-0.4,0.1-0.8,0.1-1.1,0c-2.3-0.9-4.6-1.9-6.8-2.9C36.8,104.3,36,103.8,35.9,103.4L35.9,103.4z M56.4,131c-0.4,0.1-1,0.1-1.3-0.1c-6.4-4.7-12-10.2-16-17.2c-0.5-0.8-1.1-1.5-1.5-2.3c-0.2-0.4-0.2-1.2,0.1-1.4c0.4-0.3,1.1-0.3,1.6-0.2c6.2,2.5,11.1,6.6,14.3,12.5c1.3,2.4,2.4,5,3.6,7.4C56.8,130.3,56.7,130.9,56.4,131L56.4,131z M146.8,99.8c-2,4-3.7,8.1-6.1,11.8c-2.4,3.8-5.3,7.3-9,10.1c-3.8,2.8-7.8,5.2-12.3,6.8c-6.5,2.3-13.1,3.6-20,3c-7-0.6-10.3-5.5-8.9-12.4c0.5-2.3,2.6-3.4,4.4-4.6c0.4-0.3,0.7-0.9,1.1-1.3c-0.5-0.2-1.1-0.6-1.6-0.7c-2.7,0-5.4-0.1-8.1,0.2c-3.4,0.3-8.9,4-9.7,8.1c-1,5,0.6,8.6,4.1,12c3.7,3.7,8.3,5.4,13.3,6.2c0.6,0.1,1.2,0.5,1.7,0.8c-0.6,0.3-1.2,0.8-1.8,0.9c-2.1,0.1-4.3,0-7.4,0c-5.4,0.2-11.5-1.6-17.7-3.2c-1.4-0.4-2.8-1-4.2-1.6c-1.5-0.6-1.9-1.9-2.2-3.3c-1.4-7.1-4.4-13.5-9.3-18.9c-0.9-1-2-1.7-2.9-2.6c-0.2-0.2-0.5-0.7-0.5-0.9c0.2-0.3,0.6-0.5,1-0.6c2.2-0.5,4.4-1,6.6-1.4c0.5-0.1,1.1,0,1.7,0.1c1.8,0.6,3.5,1.2,5.3,1.8c2.9,0.9,7.3-1.3,9.3-4.1c1.8-2.5,1.6-5.2,1.6-7.9c0-1.1-0.1-2.2-0.1-3.3c0.1-1.4,1-1.8,2.2-1.4c0.9,0.3,1.4,0.9,0.6,1.7c-1.4,1.4-1.3,3-0.6,4.5c3.5,8.4,12,12.7,20.6,10.7c8-1.9,14.2-6.7,17.9-14.3c0.7-1.3,1-2.8,1.6-4.2c0.2-0.5,0.5-1,0.8-1.4c0.4,0.3,1,0.5,1.3,0.9c1.3,2,2.9,3.6,5.2,4.5c2.5,1.1,4.9,1.3,7.3,0c1.7-0.9,3.3-1.9,4.9-2.9c2-1.2,3.1-0.9,4.3,1.1c1,1.6,2,3.1,4.3,3C147,97.1,147.5,98.4,146.8,99.8L146.8,99.8z M81.8,124.9c1,2.9,2.6,5.6,5,7.5c1,0.8,2.1,1.4,3.1,2.2c0.2,0.2,0.3,0.5,0.5,0.8c-0.3,0.1-0.7,0.4-1,0.3c-4-1.6-7.6-3.7-9.8-7.7c-1.7-3.3-2.2-6.4,0.1-9.5c0.8-1.1,2-1.8,3-2.7c0.5,0.2,0.9,0.4,0.9,0.4c-0.1,0.4-0.1,0.8-0.4,1.1C81.4,119.6,81,122.2,81.8,124.9L81.8,124.9z M154.1,54.7c0.5,0.6,1.2,1,1.8,1.5c1.4,1.3,1.2,2.5-0.5,3.4c-2.3,1.2-3.5,3.4-2.8,5.9c0.5,1.9-0.1,3.6-0.9,5.2c-0.2,0.5-0.9,0.9-1.5,1.2c-1.8,0.7-2.8,2-2.8,3.9c0,1.1-0.1,2.2,0,3.3c0.3,3.3-1.9,4.8-4.6,5.2c-2.6,0.3-4.7,1.2-6.6,3c-0.5,0.4-1.2,0.5-1.6,0.6c-0.6-0.1-1,0-1.2-0.2c-0.4-0.2-0.7-0.6-1.1-0.9c0.4-0.3,0.7-0.7,1.2-0.8c1.3-0.4,2.7-0.6,3.9-1.2c3.1-1.4,5.1-4,6.5-7c2.4-5.2,3.8-10.8,3.6-16.6c-0.2-4.3,0.4-8.8-1.5-12.9c-0.1-0.3,0.2-0.8,0.3-1.3c0.3,0.2,0.7,0.2,1,0.5C149.4,49.9,151.7,52.3,154.1,54.7L154.1,54.7z M181.9,28.3c-3.8,2.2-7.6,3.9-11.9,5.1c-5.6,1.6-11.2,2.9-17.7,2.6c-1.5,0-3.7,0.1-5.9-0.1c-0.8-0.1-1.9-0.8-2.2-1.5c-1.6-3.4-3.1-6.9-4.5-10.4c-0.2-0.4,0.1-1,0.1-1.6c0.5,0.1,1,0,1.4,0.2c4,2.7,8.4,3.2,12.8,2.1c3.3-0.8,6.1-3.1,7.3-6.6c0.2-0.4,0.3-0.9,0.5-1.3c0.9-2.1,1.5-2.2,3.4-1c4.7,2.9,9.4,5.9,14.1,8.8c0.9,0.6,2,1,2.8,1.6C183,26.9,183,27.7,181.9,28.3L181.9,28.3z M335.5,13.5c-0.1-0.2-0.4-0.4-0.3-0.5c0.1-0.2,0.4-0.3,0.6-0.4c0.2,0,0.4,0.1,0.8,0.2C335.8,13.2,335.7,13.4,335.5,13.5L335.5,13.5z"/></svg>