<svg xmlns="http://www.w3.org/2000/svg" viewBox="0 0 500 894"><path fill-rule="evenodd" clip-rule="evenodd" fill="#979797" d="M485.1,193.5c-19.7,2.5-36.2,11.1-49.7,25.5c-17.9,19.2-27.5,41.5-23.6,68.3c0.1,0.7,0,1.4,0,2.1c-3.3-12.4-5.2-24.9-3.6-37.7c1.7-12.9,6.4-24.9,12.6-36.1c5.4-9.8,11.8-19.1,17.6-28.7c6.1-10,11.6-20.3,14.6-31.7c2.4-8.9,1.5-17.2-3.3-25.1c-4.8-8.1-11.4-14.5-18.3-20.8c-2.4-2.2-3.8-4.7-4-7.8c-0.2-3.5,0-7.1,0-11.2c-0.4,1.3-0.6,1.9-0.8,2.6c-0.1,0.5-0.1,0.9-0.2,1.4c-2.3,12,1.8,22,9.5,31c2.3,2.7,4.5,5.5,6.5,8.5c5.6,8.4,7.5,17.6,5.6,27.6c-1.3,6.8-4.3,12.7-7.7,18.6c-8.5,14.9-17.3,29.6-25.7,44.5c-6.6,11.7-10.8,24.3-11.4,37.8c-0.1,2.7,0,5.4,0,8.1c-0.8-1.1-1.3-2.3-1.7-3.5c-8.1-20.3-13.4-41.4-18.3-62.7c-1.1-5-0.4-9.7,2-14.1c2.6-4.8,6.1-8.4,12-8.4c6,0.1,10.2,3.3,13,8.4c2.5,4.5,3.1,9.5,2.5,14.4c-0.9,7.1-2.2,14.2-3.4,21.6c2-5.4,4-10.6,5.9-15.7c2.4-6.4,2.8-12.9,1.8-19.6c-1.3-8.1-6.8-14-13.9-15c-10.2-1.4-20.1,6.1-21.4,16.3c-0.1,0.7-0.3,1.5-0.4,2.2c-1-2.2-1.6-4.4-1.9-6.6c-4.2-26-8.2-52.1-12.4-78.1c-4.1-25.1-9.4-49.8-18.5-73.6c-4.8-12.6-10-25-18.1-36h-8.9c5.6,7,9.8,14.9,12.9,23.4c3.9,10.6,7.1,21.5,10.6,32.2c6,18.5,11.3,37.2,14.8,56.4c4.5,23.8,9,47.6,13.5,71.4c1,5,2.3,10,3.4,14.9c-0.8-0.5-1.2-1.1-1.5-1.7c-3.4-7.7-6.7-15.4-10-23.2c-7.7-18-19-33.3-34.1-45.7c-10.4-8.5-21.8-15.2-35.6-16.8c-10.9-1.2-21.2,0.2-29.2,8.8c-0.4,0.5-1.7,0.5-2.4,0.3c-4.4-1.4-8.7-0.9-12.3,1.9c-3,2.4-6,5.3-7.8,8.6c-6.2,11.1-8,23.5-6.9,35.9c1.2,13,5,25.5,10.1,37.5c7.2,16.8,17.8,31.4,29.2,45.4c0.8,1,1.6,1.9,2.6,3.2c-0.8,0.1-1.2,0.2-1.5,0.2c-16-0.8-31.3,2.2-46.3,7.4c-28.8,9.9-51,27.2-62.9,56c-0.5,1.2-1.9,2.2-3.1,2.8c-24.1,11.6-44.5,27.6-59,50.4c-3.4,5.4-5.7,11.4-9.4,16.6c-7.4,10.2-15.1,20.2-23.3,29.9c-7.1,8.4-16.4,14.1-26.6,18.3c-16.8,7-29.7-2.9-36-12.4c-1.5-2.2-2.2-5.2-2.5-7.9c-0.3-3.4,2.7-6.5,6.2-7.4c3.1-0.7,5.2,0.5,7.1,4.1c0.2,0.3,0.3,0.5,0.7,1.1c-0.2-7-4.5-10.4-10.8-9c-5.4,1.2-8.6,5-10.4,10.1c-0.4,1.1-0.8,2.3-1.2,3.4c0,1.5,0,3,0,4.5c0.2,0.5,0.4,1,0.6,1.6c2.2,8.9,7.6,15.2,16,18.6c9.8,3.9,19.5,2.6,29-1.3c11.7-4.9,21.5-12.5,30.6-21c0.5-0.4,1-0.8,1.5-1.2c-0.2,0.9-0.6,1.6-1,2.2c-10.2,14.9-16.9,30.9-16.2,49.5c0.2,6.1-0.3,12.5-1.8,18.4c-3.6,14.2-12.7,24.6-24.9,32.3c-3.7,2.3-8.2,3.7-12.5,4.6c-4.5,1-8.4-1.2-10.4-5.4c-1.2-2.7-1.8-5.7-2.1-8.6c-0.3-2.6,0.5-5.2,3.2-6.7c1.3,4.3,1.9,5.2,4.1,5.4c2.3,0.3,4.3-0.1,5.6-2.3c1.3-2.3,1.7-4.5,0.2-6.8c-3.6-5.3-10.9-4.7-14.7,1.2c-6.1,9.7,1.8,24.6,13.3,25.2c7.1,0.4,13.3-2.2,18.6-6.6c20.3-17.1,32.5-38,29.5-65.6c-1.1-9.5,1.1-18.2,5.7-26.4c4.2-7.4,8.7-14.6,13-22c1.1-1.8,2.2-3.6,3.3-5.4c0.2,0.6,0.1,1,0,1.4c-3.8,12.4-5.2,25.1-4.4,38c1.1,17.8,10.7,29.9,27.7,35.2c7.2,2.2,13.9,1.3,20-3.1c13.2-9.3,18.2-29.7,10.7-44.1c-1.8-3.6-4.5-6.2-8.3-7.8c3.9,4,6.7,8.6,6.8,14.3c0.1,7.7-2.8,14.5-7.1,20.6c-9.2,13-27.6,12.6-36.6-0.6c-3.5-5.1-5.1-11-6.1-17c-3.6-23.4,2.1-44.9,14.4-64.6c13.5-21.6,33-36.5,55.7-47.4c0.4-0.2,0.8-0.3,1.2-0.4c0.1,0.3,0.2,0.5,0.2,0.7c0,0.4-0.1,0.7-0.2,1.1c-3.9,14.7-4.1,29.6-2.2,44.6c1.8,14.6,6.7,28.4,11,42.3c0.9,2.9,1.3,3.1,3.9,3.5c-2.6-12.4-5.6-24.9-7.8-37.6c-3.4-19.6-0.6-38.8,6-57.4c0.4-1.3,1.5-2.7,2.7-3.2c3.7-1.8,7.5-3.4,11.4-4.7c26.8-8.6,54-9.8,81.2-3c33.1,8.3,62.2,24.5,87.9,46.9c0.3,0.2,0.4,0.6,0.6,0.8c-6.1,12.3-1.6,23,4.8,33.4c-7.2,6-7.1,13.7-4.8,22c-1.9-0.4-3.7-1.4-5-1c-1.4,0.5-2.4,2.3-3.9,3.8c2,0.8,3.5,1.7,5.1,2c4.5,0.9,7.6,3.1,9.7,7.4c1.4,3,3.8,5.4,6,8.5c-1.3-0.1-2.1-0.2-3-0.3c-23.2-2.5-43.1,4.3-59.5,20.9c-4.2,4.2-9.4,4.6-14.5,3.8c-3.4-0.5-5.7,0-8.1,2.4c2.5,5.5,7.5,5.8,12.7,5.8c-2.4,4.8-4.6,9.2-6.7,13.6c-1.5-3.5-2.9-6.9-4.3-10.3c-0.4,0.1-0.8,0.1-1.3,0.2c-5.5,14.6-7,30.1-10.3,45.3c-0.1-15.5,3.6-30.5,6.6-45.9c-2.6,2.5-4.9,4.6-7.2,6.8c-6.1,5.9-10,13-10.9,21.3c-0.9,8.3-1,16.8-1,25.2c0,8.5,3.1,16.5,6.2,24.6c2.8-3.8,5.4-7.3,7.8-11c2.3-3.6,4.6-7.3,6.5-11.1c1.9-3.8,3.3-7.9,5.1-12.2c5.8,26.8,20.7,44.6,47.8,50.7c-0.1,1.1-0.2,1.9-0.2,2.6c-0.4,7.5,0.2,15,2.5,22.2c5.1,15.4,20.6,32.1,42.5,29.8c15.8-1.6,29.7-12.6,33.6-28c3-11.9,0.9-23.2-4.8-33.9c-3.1-5.8-8.2-9.2-14.5-10.6c-2-0.4-4-0.6-6.3-0.9c5.9-9.5,6.7-19.9,6.4-30.7c5,0.3,9.3,1.9,13.2,4.3c16.5,10.1,25.5,24.5,24.5,44.2c-0.9,18.2-4.3,36.2-10.7,53.2c-7.3,19.4-15.7,38.4-24.6,57.2c-12.3,25.9-26,51.2-38.3,77.2c-8.1,17-14.8,34.6-22.1,51.9c-0.4,0.8-0.7,1.7-1.1,2.5c-0.4-0.5-0.4-0.7-0.3-1c4.5-21.7,8.6-43.5,13.5-65.1c5.6-24.8,6.1-49.3-1-73.8c-5.4-18.5-15-34-31.1-45c-10.7-7.3-22.5-11.3-35.3-9c-30.3,5.3-53.3,20.9-66.6,49.3c-0.3,0.6-0.6,1.1-0.9,1.6c-9-1.6-17.8-3.1-25.9-4.5c2.2,3.6,5.3,7.4,6.9,11.7c5.2,13.5,13,25.7,19.6,38.4c0.9,1.7,2,3.4,3.2,4.9c5,6.5,14,11.8,24.4,8c0.3-0.1,0.7-0.2,1.2-0.3c0.3,1.3,0.6,2.5,1,4c0.4-2,0.3-4.3,1.3-5.2c2.4-2.3,5.4-4.1,8.1-6c0.7,9.2,1.1,18.3,2.1,27.4c2.9,26.8,8.3,53.2,19,78c9.9,23,21.3,45.4,32,68c1.2,2.4,2.3,4.9,3.4,7.3c9.2,0,18.4,0,27.5,0c0.6-6.6,1.4-13.2,1.9-19.8c2.3-30.2,12.4-58.3,23-86.2c16.5-43.5,35.1-86.1,55.6-127.8c11.1-22.7,17.9-46.8,21.7-71.7c1.9-12.7,4.8-25.5,5.1-38.3c0.5-23.8-0.2-47.8-5.1-71.2c-1.3-6.3-4-12.2-6.2-18.9c2.4-2.7,6.2-4.7,10.2-6.2c7.3-2.8,14.7-5.5,22.3-8.4c0.1,0.3,0.5,1.1,0.8,2c12,36,16.7,72.8,13.5,110.6c-3.1,36.1-12.3,70.6-25.4,104.3c-12.3,31.7-26.7,62.4-41.9,92.8c-16,32.2-30.6,65-41.5,99.3c-4.1,13-7,26.4-10.4,39.6c2.8,0,5.6,0,8.4,0c0.3-1,0.7-1.9,0.9-2.9c5.3-24.3,13.7-47.6,23-70.6c14.8-36.6,31.5-72.4,48.8-107.9c21.5-44.1,37.7-90,45-138.7c3.5-23.3,3.2-46.7,0.8-70c-2.1-21.1-7.2-41.6-14.8-61.5c-0.5-1.4-0.8-2.5,0.7-3.6c6.2-5.1,10.9-11.3,14.3-18.5c3.4-7.2,6.5-14.4,9.7-21.7v-21.6c-3.7,0.5-7.5,0.9-11.4,0.9c-4,0-8.1,0.2-12,1.1c-7.9,1.7-15.7,4-23.8,6.1c0,0-0.4-0.6-0.7-1.3c-12.1-26.8-24.1-53.6-36.1-80.3c-0.5-1.1-0.8-2.3-0.8-3.5c0.2-8.9-0.3-17.8,0.8-26.6c1.9-15.3,7-29.8,16.2-42.3c10.4-14.1,24.3-23.7,41-29.2c9.1-3,18.1-3.9,26.8-2v-6.1C495.2,193,490.2,192.9,485.1,193.5L485.1,193.5z M83.2,489.3c-0.1,0-0.2,0.2-0.5,0.5c17.2,8.8,27.5,22.7,31.2,41.5c-6.5-14-12.9-28.1-27.9-36.3c3,4.5,3.7,9,4,13.7c0.3,4.6,1.4,9.1,4.1,13c2.8,4,5.9,7.7,9.1,11.4c5.7,6.5,13.8,10.8,16.9,19.1c0.8-5.9,2-11.8,2.4-17.8c0.3-4.9,0.4-10-0.7-14.7C118,503.1,100.4,489.6,83.2,489.3L83.2,489.3z M124.5,168.9c5.5,4.9,11.4,9.4,17.3,13.8c9.5,6.9,20.2,9.7,31.8,8c6.2-0.9,12.3-1.2,17.8,2.6c-13.5-20.4-35.5-25.6-56.8-32.1c26.8-0.2,47,12.1,62.8,32.9c-1-3.6-2.3-6.9-3.4-10.2c-0.8-2.5-1.1-5.2-2.2-7.5c-5.4-11.2-13.5-20-24.6-25.7c-9.6-5-19.8-6.8-30.4-3.3c-10.8,3.6-21.6,7.2-32.1,10.8c0.7,0.2,1.7,0.6,2.8,1C114.1,161.1,119.5,164.4,124.5,168.9L124.5,168.9z M107.4,289.7c9-4.9,18.3-8.1,28.9-7.2c7.3,0.6,14.8,0.3,22.1-0.2c14.4-1,26.8-6.4,36.5-17.4c2.4-2.7,4.9-5.4,7.4-8.1c5.2-5.6,10.6-10.8,19.6-11.5c-1.1-0.5-1.5-0.7-1.9-0.9c-1.2-0.4-2.5-0.9-3.7-1.2c-12.1-3.3-23.9-2.3-35.6,2c-14.5,5.4-28.3,12.3-41.6,20.3c-0.6,0.3-1.2,0.6-1.7,0.9c26.2-26,56.5-36.7,92.9-25.1c-3.5-2.9-7.1-5.6-10.2-8.6c-20.5-20.3-50.5-21.3-72.4-2.5c-7.2,6.2-12.8,13.8-17.9,21.8c-8.3,12.9-14.9,27-25,38.8c0.2,0,0.3,0.1,0.3,0.1C105.9,290.5,106.6,290.1,107.4,289.7L107.4,289.7z M422.1,224.4c-3,5.5-5.6,11.2-6.4,17.5c0.3-0.9,0.7-1.7,1-2.6c5.3-13.3,12.4-25.4,23-35.1c6.2-5.7,13.4-10.4,20.1-15.6c4.2-3.2,8.2-6.6,12.7-10.2c-2.1-1.1-3.4-1.8-4.8-2.5c-4.1,6.2-9.9,10.2-15.5,14.3C439.8,199.4,429.5,210.6,422.1,224.4L422.1,224.4z M484,180c3.4,1.1,7,2.4,10.5,2.5c1.9,0,3.7-0.1,5.5-0.4v-10.6c-7.5,2.4-15.3,3.8-22.3,5.6C479.3,177.8,481.5,179.3,484,180L484,180z M487.9,163.4c-2.1,3.7-4.3,7.2-9,9.4c5.9,0.4,10.9-0.4,15.6-2.2c1.9-0.7,3.7-1.5,5.5-2.3v-16.5C495,154.3,490.9,158,487.9,163.4L487.9,163.4z M480.3,114.8c-2.5,2.6-4.8,5.6-6.4,8.8c-8.4,16.3-6.7,32.1,3.2,47.6c-2.5-19.4,1-37,13.9-52c-7.7,14.3-12.3,29.3-11.3,45.4c2.4-2.7,4.6-5.4,7.2-7.8c6.9-6.5,11.6-14.1,12.6-23.7c0.3-3.1,0.5-6.3,0.6-9.5v-22.9C493.1,104.3,484.7,110.1,480.3,114.8L480.3,114.8z M82.4,423.2c-1.1,2.6-2,5.2-2.8,7.8c-4.2,14.6-4.3,29.1,0.8,43.5c0.8,2.1,2,4.1,3,6.1c0.5-0.2,1-0.3,1.4-0.5c-0.3-1.9-0.5-3.9-1.1-5.8c-4-11.9-6-23.9-4-36.4C80.6,433.1,81.5,428.1,82.4,423.2L82.4,423.2z M200.1,527.9c2.7-0.7,5.1-1.3,7.4-1.9c10.4-2.7,20.8-5.6,30.4-10.5c10.7-5.5,17.4-14.3,22-25.5c-7.1-3.2-13.8-2.2-20.3,0.5C221.9,497.9,210,511.5,200.1,527.9L200.1,527.9z M339.8,414.9c-3.5-2.9-6.9-6.1-10.6-8.8c-2.6-1.9-5.6-3.5-8.6-4.5c-5.6-1.8-11.5-0.9-17.3-0.4c-5.6,0.5-11.2,0.7-16.7,0.8c-1.7,0-3.5-0.7-5.3-1.1c3.5,4.4,6.8,8.7,10.3,12.9c2.4,2.9,5,5.6,7.6,8.3c2.9,3,6.6,4.9,10.7,5.8c14.8,3.3,27.1-0.8,36.7-12.6c-16.6,6.2-32.7,5.9-47.5-5.2C312.4,415.1,325.8,419.1,339.8,414.9L339.8,414.9z M270.3,342.8c0.3,6.5,0.5,12.7,0.9,19c0.2,3.3,0.4,6.6,1.3,9.7c4.4,14.7,18.1,28.8,42.9,24.7c-18.1-5.6-29.8-17-35.8-34.1c8.3,13,17.6,24.8,32.2,30.2c-1.4-3.3-3.3-6.6-4.2-10.2c-2.4-9.9-7.4-17.6-16.5-22.5C283.2,355.2,275.5,350.6,270.3,342.8L270.3,342.8z M86.6,521.4c-0.1-0.1-0.3,0-0.7,0.1c7.6,17.7,6.5,35-2.6,51.9c4-14.9,8.1-29.8,1.9-45.8c-0.6,5.3-2.9,9.3-5.7,13.1c-2.7,3.8-4.8,7.9-5.2,12.6c-0.4,4.8-0.4,9.7-0.3,14.6c0.2,8.6,3.6,17.1,0.8,25.5c4.4-4,9.1-7.8,13.3-12.1c3.4-3.5,6.7-7.4,8.9-11.7C104.5,554.2,99.6,532.6,86.6,521.4L86.6,521.4z M325.4,359.8c-8.9-3.9-18.8-5.4-29-8.2c2.3,3.1,4.2,5.3,5.7,7.7c1.5,2.6,2.6,5.4,3.6,8.2c1,2.5,1.7,5.2,2.6,7.7c4,11.4,11.2,20.2,21.8,26.1c3.8,2.1,7.9,3.5,10.3,7.6c-0.7-3.9-1.5-7.6-2.9-11.2c-4.6-12.3-13.1-22.1-22-31.4c16.6,10.5,25.9,25.8,28.4,45.2c0.8-3.7,1.2-7.2,1.9-10.7C348.8,384.9,340.3,366.3,325.4,359.8L325.4,359.8z M238.5,394.3c1.7,9.2,4.1,17.9,7.6,26.3c2.6,6.2,5.8,11.9,10.4,16.9c7.2,7.8,16.1,12.2,27.3,13.4c-9.1-10.6-18.4-20.2-24.5-32.3c8.7,10.3,16.6,21.3,27.7,29.7C289.5,428.1,259.9,395.3,238.5,394.3L238.5,394.3z M81.1,508.8c-1.1-4.6-1.2-9.4-1.8-14.1c-9.4,13.6-13.4,29.4-15.1,46c-4.1-13.7,5.7-43.2,17.6-52.5c0,0,1.6-1.3,1.9-2.3c-5.1,3.3-9.8,5.8-13.9,9.1c-13.3,10.6-23.8,28.7-13.2,51.2c3,6.2,5.8,12.6,8.9,19.2c0.8-7.3,1.8-9.8,5.5-16.3c2.6-4.4,5-9,7.2-13.6C82.3,527,83.3,518.2,81.1,508.8L81.1,508.8z M181.9,465.1c1.7,1.1,2.8,1.8,3.9,2.5c17.4,9.9,36.2,13.7,56.1,12.7c9.6-0.4,18.7-2.7,27-7.7c3.9-2.3,7.4-5.1,11.1-7.7c-0.1-0.4-0.3-0.9-0.4-1.3c-19.3-3.7-38.6-0.1-57.9,0.1c18.5-4.9,37.5-5,56.7-5.2c-0.3-0.5-0.4-0.8-0.5-0.9c-10.9-9.5-23.2-15.4-37.9-15.2c-16.2,0.3-31,5.6-44.9,13.6C190.8,458.7,186.6,461.9,181.9,465.1L181.9,465.1z M298.4,891.1c-0.6-5.3-1.4-9.8-1.5-14.3c-0.8-23.1-18.9-42.6-41.9-45.2c-9.2-1-17.9,0.9-26.6,3.1c-10.3,2.6-20.7,5-30.7,7.4c0,0,0.7,0.3,1.4,0.5c7.6,2.6,14.2,6.6,19.3,12.9c3,3.7,6.3,7.2,9.7,10.6c12.7,12.8,27.9,19.2,46.1,17.7c6-0.5,11.8-0.3,16.9,3.7c-0.3-1.4-0.8-2.5-1.4-3.7c-5.1-9.4-12.7-16.3-22-21.4c-10.6-5.9-21.8-10.4-33.4-13.8c-0.9-0.3-1.8-0.5-2.7-0.8C261.8,849.6,285,862.4,298.4,891.1L298.4,891.1z M227.3,774.4c6-2.4,12.1-4.2,18.5-1c0.1-0.3,0.3-0.6,0.4-0.9c-4.2-3.1-8.2-6.4-12.5-9.1c-9.9-6.3-21.2-8.4-32.7-9c-8.6-0.4-17.3-0.1-26-0.1c30.1-9.4,56.6-4.1,78.8,19.7c-0.1-0.6-0.1-0.9-0.2-1.2c-2.7-6.3-5.4-12.7-8.3-19c-0.9-1.9-1.9-3.9-3.3-5.5c-11.8-13.9-26.8-20-44.9-17.9c-11.7,1.4-21.5,7-31,13.6c-7.4,5.2-15.4,9.6-23.1,14.3c-0.7,0.4-1.4,0.7-2.7,1.5c1.3,0,1.7,0,2.1,0c9-0.2,17.2,1.9,24.7,7.1c2,1.4,4.1,2.6,6.3,3.7c9.4,5.1,19.1,9.1,30,9.4C211.9,780.3,219.6,777.4,227.3,774.4L227.3,774.4z M246.2,31.9c6.4,1.8,12.9,2.7,19.4,0.7c11.7-3.5,16.1-14.1,10-23.6c-2.9-4.5-7.2-5.7-12.5-3.4c-4.6,2.1-7.5,7.2-5.9,11.4c0.8,2.1,2.3,4.2,4.1,5.4c1.7,1.1,4.2,0.8,6.9,1.3c-2,1.3-3.8,2.9-6,3.7c-4.7,1.7-9.7,2.1-14.4,0.7c-14.7-4.6-24.4-14.2-29.5-28.1l-4.7,0c0.1,0.5,0.2,1,0.4,1.5C219.2,17.6,230.2,27.4,246.2,31.9L246.2,31.9z M480.4,854.4c-11.3-9.9-24.6-14.7-39.8-13.7c-13.3,0.9-24.8,5.4-33.6,15.7c-2.6,3-5.5,5.9-8.2,8.9c-1,1.1-2,2.2-3,3.3c-0.9,1-1.9,2.1-2.8,3.1c0.8,0.1,1.3-0.2,1.8-0.4c15.8-8,32.4-11.5,50-8.1c12.3,2.3,23.4,7.8,34.1,14c1.9,1.1,3.9,2.3,5.8,3.4c-0.7,0.2-1.3,0.1-1.7-0.1c-14.5-6.7-29.6-10.9-45.5-12.5c-11.8-1.2-23.2-0.2-33.9,5.3c-0.6,0.3-1.2,0.8-2.4,1.6c5.4,0.1,9.8,0.9,13.5,3.8c6.5,5.1,12.8,10.3,19.2,15.5c22,0,44.1,0,66.1,0v-18.2c-1.1-1.4-2.2-2.7-3.3-4.1C491.6,865.7,486.3,859.6,480.4,854.4L480.4,854.4z M437.5,658.1c11.9-31.2,22.5-62.6,25.3-96.2c2.9-34.2-0.9-67.4-13.3-99.5c-0.3-0.7-0.6-1.3-1.1-2.1c-1.4,0.6-2.7,1.2-4,1.8c-1.3,0.6-2.5,1.2-3.9,1.8c0.4,1.1,0.7,2,1,2.9c6.2,17.9,10.4,36.2,11.3,55.1c1.8,37.6-3.7,74.3-16.2,109.8c-6.6,18.8-14.3,37.1-23.5,54.9c-9.5,18.2-17.5,37.2-25.9,56c-18.4,40.8-33.8,82.6-41.3,126.9c-1.4,8.2-2.5,16.4-3.7,24.7c2.8,0,5.6,0,8.4,0c0.2-0.8,0.4-1.6,0.5-2.5c6.6-38,16.9-75,32.9-110.2C402.5,740.5,421.5,699.9,437.5,658.1L437.5,658.1z M461.8,689.1c-10.4,23.6-21.6,46.8-32.7,70.2c-10.5,22.1-21.6,44-31.9,66.2c-10.2,21.9-16.9,44.9-21.8,68.5c1.1,0,2.2,0,3.4,0c0.4-2.1,0.8-4.2,1.4-6.2c6.1-20.6,14.2-40.4,22.6-60.1c4.1-9.6,7.5-19.6,12.4-28.8c8.3-15.6,19-29.6,31.2-42.4c11.1-11.7,21.8-24,36.4-31.8c2.6-1.4,5.1-3.1,7.7-4.7c3.2-2,6.4-4,9.7-5.9v-2.6c-3.3,2.1-6.6,4.4-9.8,6.8c-1.8,1.3-3.8,2.4-5.7,3.6c-0.4,0.2-0.8,0.4-1.8,1c0.5-0.8,0.6-1.1,0.8-1.2c5.4-4.4,10.9-8.6,16.5-12.5v-5.7c-6.7,4.5-13.2,9.4-19.6,14.6c-19.5,15.9-37.9,32.9-51.8,54.2c-0.1,0.2-0.4,0.4-0.6,0.6c1.4-3.7,3.1-7.1,4.8-10.5c14.8-29.7,30.1-59.3,39.9-91.1c7.1-23.1,16.9-44.9,27.2-66.5v-8.6c-3,6.4-5.7,13-8.3,19.5c-0.3,0.9-0.7,1.7-1.1,2.6c0-2.7,0.4-5.3,1.2-7.8c4-10.8,6.2-22,8.2-33.2v-36.8c-3.6,19.3-7.1,38.7-11.1,57.9C482.5,629.4,474.7,660,461.8,689.1L461.8,689.1z M473.2,306.3c-10.7-14.1-13.8-30.3-11.2-47.6c1.2-7.9,5.5-14,12.7-17.9c2.5-1.4,5.1-1.8,7.8-0.3c7.4,4,8.3,16.6,1.6,21.7c-2.1,1.6-4.1,1.6-6.1-0.2c-2.6-2.3-3.1-5.2-2.4-8.5c-2.4,2.8-3.9,5.8-3.1,9.5c1,4.3,4.8,7.9,9.7,8.7c4.9,0.8,9.2-0.4,12-4.8c3.8-5.9,4.7-12.4,3.5-19.1c-1.3-7.4-5.5-11.7-12.1-12.7c-7.2-1.1-13,1.7-18,6.6c-16,15.7-21.9,53.2,6.3,74.2c7.8,5.8,16.4,9.2,26.1,8.3v-3.2C489.8,320.7,480.4,315.8,473.2,306.3L473.2,306.3z M240.1,714.3c-3.1-12.8-10.8-22.8-19.9-31.8c-0.8-0.8-1.3-2-1.9-3c0.3-0.2,0.6-0.4,0.9-0.6c12.9,9,20.2,21.6,24.3,36.7C241.9,716,240.6,716.3,240.1,714.3L240.1,714.3z M256.6,705.2c-1,2.7-3.1,5.1-4.9,7.4c-0.9,1.1-2.4,1.8-3.6,2.7c-0.4-5.8-0.7-11.1-1-16.5c0-0.6,0.5-1.3,0.9-1.7c1.4-1.1,2.9-2,4.6-3.1c-2-1.9-3.1-2.7-3.9-3.7c-0.4-0.6-0.7-1.7-0.4-2.3c0.3-0.6,1.4-0.9,2.1-0.9c2.6-0.1,4.3,1.4,5.6,3.6C258.9,695.4,258.5,700.4,256.6,705.2L256.6,705.2z M251.5,675.1c-5-1.5-8.6,1.3-12,4.2c-2.6-3-4.9-6.2-7.8-8.8c-2.8-2.5-6.2-4.4-9.4-6.6c13.2-32.6,54.7-55.7,87-43c-17.8,7.4-29.3,20.5-37.2,37c-4.1,8.6-8,17.4-11.9,26.1C258.2,680.7,256.2,676.5,251.5,675.1L251.5,675.1z M318.3,885.8c0,0.6-0.1,1.3-0.2,2.3c-18.6-36-38-71.1-49.1-109.8c-5.4-18.7-8.2-37.8-7.6-57.3c0.4-15.4,5.1-29.8,10.1-44.1c4-11.3,8.3-22.5,15.7-32.1c3.8-4.9,8.3-9.4,13.1-13.3c2.8-2.3,6.8-3.5,10.5-4.3c4.7-1.1,8.6,1.5,10.5,6c2.7,6.1,1.8,11.7-3,18.6c7.3-2.1,8.9-8.4,6.3-22.6c1.6,1.7,3.3,3.3,4.7,5.2c6.8,9.2,10.6,19.7,13,30.8c4.8,22.5,4.5,45,0.3,67.5c-6.3,33.8-12.7,67.6-19.1,101.5C320.3,851,319.4,868.4,318.3,885.8L318.3,885.8z M243.1,172.9c-2.7-13.7-0.2-27,5.3-39.7c2.9-6.8,7.5-9.6,13.1-9.1c0.4,0,0.7,0.2,1.2,0.3c-0.1,0.4,0,0.8-0.2,1.1c-10.3,21.8-4.6,42.3,14.2,56.8c2.6,2,5.3,3.9,7.9,5.7c-1.2,3.9-2.5,7.7-3.4,11.6c-1.9,7.9-0.7,15.6,1.9,23.2c3.7,10.8,9.4,20.6,15.6,30c0.4,0.6,0.8,1.2,1.2,1.9c0.1,0.1,0,0.4,0,0.6c-5.2-0.7-10.3-1.3-15.5-2c-0.6-0.1-1.2-0.8-1.7-1.3C262.9,228.9,249,202.9,243.1,172.9L243.1,172.9z M329.6,326.5c-18.4-9.5-37.3-17.9-57.8-21.9c-29.6-5.7-58.7-4.9-87.1,5.9c-1.2,0.5-2.4,0.9-3.6,1.4c-0.2-0.2-0.5-0.5-0.7-0.7c3-4.3,5.7-8.8,9-12.8c19.1-23.5,44.1-35.5,74-37.9c6.2-0.5,12.5-0.4,18.8-0.5c2.9-0.1,5.2,1,7.4,3.2c7.3,7.5,14.9,14.7,22.5,22c1.4,1.3,3.3,2.2,4.9,3.3c0.1-0.2,0.3-0.4,0.4-0.6c-8.5-8.7-17.1-17.4-25.6-26c0.2-0.3,0.4-0.6,0.5-0.9c4.5,0.8,8.9,1.6,13.4,2.5c0.6,0.1,1,0.8,1.5,1.2c15.1,15.3,30,30.7,45.2,45.7c24.2,24,48.6,47.7,72.9,71.6c2.5,2.5,4.7,5.3,6.9,8.2c-7.6-2.4-14.4-1.1-20.3,3.6c-5.8-6.2-11.2-12.4-17.1-18.3C375.3,356.1,353.9,339.2,329.6,326.5L329.6,326.5z M420.9,407c-1-1.9-2.2-3.7-3.5-5.4c-1.3-1.6-0.9-2.7,0.5-4c3-2.9,6.6-4.1,10.5-3.2c2.8,0.6,5.5,1.9,8.7,3c-9.3,9.8-14.6,20.9-17.7,33.9c-3.4-5.3-5.4-10.5-5.9-16.4c0.9,1,1.8,2.1,2.8,3.3c1.7-3,3.4-5.8,4.8-8.7C421.5,408.8,421.3,407.6,420.9,407L420.9,407z M366.1,363.6c6.7,6.4,13.4,12.3,19.5,18.7c6.7,7,13.1,14.4,19.5,21.7c0.6,0.7,1.2,1.6,1.2,2.4c0,9.2,4.2,16.8,9.6,23.7c2.6,3.3,3.5,6.5,2.6,10.2c-14.8-13.1-29.7-26.4-45.1-40c9.6-2.6,14.9,3.7,20.8,8.6c-3.6-7.1-8.3-13.3-15.2-17.4c-3.7-2.2-7.6-2.3-11.8-0.9C363.3,381.7,363.1,373,366.1,363.6L366.1,363.6z M368.7,414.1c-0.6-4.2,0.7-9,3.5-11.3c12.4,10.5,24.5,20.8,36.7,31.2c2,1.7,3.6,3.9,5.7,5.4c4.3,3.1,5.2,7.4,5.2,12.6c-0.7-0.6-1.2-1-1.6-1.5c-12.2-13.1-26.4-23.2-43.4-28.9C370.8,420.1,369.3,417.9,368.7,414.1L368.7,414.1z M422.4,462.9c-0.2,0.2-0.4,0.5-0.7,0.7c-0.6-0.9-1.1-1.8-1.8-2.6c-10.5-12-23.2-20.5-38.9-24.4c-0.7-0.2-1.6-0.7-2-1.3c-2.3-3.4-4.4-6.9-6.6-10.4c0.2-0.3,0.3-0.7,0.5-1c4.4,1.6,9,2.9,13.3,4.9c12,5.5,22.5,12.9,31.1,22.9C420.4,455.1,422.1,458.6,422.4,462.9L422.4,462.9z M322.5,451.8c10.6-9.3,22.8-13.7,36.9-13c3.3,0.2,6.5,0.5,9.8,0.9c5.6,0.7,10.9,2,15,6.5c1.8,2,4.3,3.5,6.5,5.2c0.1-0.1,0.2-0.3,0.3-0.4c-1.6-2.1-3.3-4.3-4.9-6.4c18.7,7.7,34.4,18.8,42.4,38.3c-0.1,0-0.4-0.1-0.5-0.2c-10.5-13.9-25-21.7-41.2-26.7c-14-4.3-28.3-5.3-42.8-4.2c-7.9,0.6-15.8,1.7-24.4,2C320.6,453.2,321.6,452.6,322.5,451.8L322.5,451.8z M367.8,558.5c-0.7,1-1.7,2.1-2.8,2.5c-7.8,2.9-15.9,2.6-24.8,1.7c1.1-4.7,1.6-9.2,3.2-13.3c6.6-16.9,17.8-29.3,36-34.1c2.5-0.7,5.2-0.8,7.8-1.1c1.6-0.2,2.4,0.4,2.5,2.1c0.6,10.5-1.6,20.2-6.7,29.4c-0.5,0.9-1.5,1.6-2.5,2C375,549.9,371.1,553.8,367.8,558.5L367.8,558.5z M374,561.1c-0.8,1.6-1.5,3.1-2.4,4.7C369.9,562.9,369.9,562.8,374,561.1L374,561.1z M390,548.6c8.2-0.4,17.7,5.7,20.5,14c4,11.9,4.3,23.6-3.3,34.6c-8.4,12.2-21.2,17.1-35.5,13.2c-20.2-5.5-33.9-25.4-31-45.6c8.4,2,16.6,1.4,25-0.9c-0.3,4.3,1,7.7,3.7,10.6c3.3,3.6,8.1,4.1,11.9,1.3c3-2.2,4.3-8.1,2.4-11.5c-1.7-3.2-4.8-3.9-7.8-3.9c3.7-3.7,7.5-7.5,11.4-11.2C388,548.7,389.1,548.6,390,548.6L390,548.6z M438.8,546.6c-0.1,2.5-0.4,5-1.2,7.5c-0.3-1.8-0.6-3.7-0.9-5.5c-1.2-8.3-3.9-15.9-8.5-22.9c-7.2-10.9-17-17.8-30.1-19.4c-2.2-0.3-3.1-1-3.7-3.2c-3.1-11.3-9.5-20.4-19.3-27c-9.6-6.5-18.4-4.4-26,5.5c-1,1.3-1.5,3.2-1.9,4.9c-1.6,7.5,2.4,17.3,8.5,21.3c6,3.9,13.3,2.3,17.1-3.9c3.3-5.4,1.1-12.9-4.3-15.8c0.5,1.8,1.6,3.9,1.7,6c0.1,4.9-4.6,7.6-8.9,5.1c-4.9-2.7-5.8-7.5-5.7-12.6c0.1-4.6,2.4-8.1,6.7-9.4c2.3-0.7,5.2-0.3,7.7,0.2c4,0.9,7.1,3.4,9.6,6.5c5,6.1,7.3,13.4,8.6,21.3c-2.8,0.5-5.3,0.9-7.7,1.5c-16.7,4.3-27.6,15.3-34.6,30.4c-3.5,7.7-6,15.9-9,24.1c-0.2-0.1-0.9-0.3-1.7-0.6c-21.8-9.3-33.2-26-35.2-49.5c-1.4-16.7,3.3-31.8,11.5-46.1c0.5-0.9,1.5-1.8,2.4-2c11.8-2.4,23.6-5.2,35.5-7c22.5-3.4,58.9,7.2,74.4,34c7.7,13.3,13.2,27.1,15.5,42.1C440.1,537,439.1,541.9,438.8,546.6L438.8,546.6z M439.7,500.9c-0.4-1.1-0.7-1.7-0.8-2.3c-2.1-11.1-5.6-21.7-12.9-30.7c-0.5-0.7-0.7-1.9-0.6-2.8c0.5-2.7,1.2-5.3,1.8-7.9c0.3,0,0.5-0.1,0.8-0.1C436,470.4,440.2,484.8,439.7,500.9L439.7,500.9z M482.8,394.3c0.1,0.1,0.2,0.3,0.3,0.4c-6.5,4.9-12.9,9.7-19.6,14.8c-0.5-0.8-1-1.7-1.9-3.2C468.8,402.2,475.8,398.3,482.8,394.3L482.8,394.3z M455.1,411.6c0.6-0.5,1.3-1,2-1.5c0.1-0.1,0.3-0.1,0.6-0.1c1.6,2,1.8,3.6-0.2,5.9c-6,7-12,14.1-17.1,21.8c-3.6,5.5-5.8,12-8.6,18.1c-3.4-2.8-3.4-3-1.8-7.2C435.5,434.3,443.1,421.5,455.1,411.6L455.1,411.6z M447.7,385.6c0.5,0.7,0.7,1.5,1.1,2.4c-3.3,2.5-6.6,4.9-10,7.4c-1.3-1.7-4.2-2-3.8-5c0.1-0.5-0.7-1.1-1-1.6c-10.7-16.2-24.5-29.7-38.6-42.9c-22-20.6-44-41.2-65.8-61.9c-4.6-4.4-8.8-9.2-13.2-13.8c-1.2-1.3-2.2-2.7-3.3-4.1c0.1-0.2,0.2-0.3,0.3-0.5c1.5,0.5,3,0.9,4.4,1.4c21.9,7.1,40.8,19.4,58.6,33.7c16.9,13.6,32.6,28.6,45.6,45.9C431.3,359,439.2,372.5,447.7,385.6L447.7,385.6z M419.8,336.1c-0.1,0.1-0.3,0.2-0.4,0.3c-1-1.1-1.9-2.2-2.9-3.3c-23.1-27-50.3-48.8-82.2-64.7c-7.8-3.9-16.3-6.6-24.4-9.9c-1.1-0.5-2.5-1.2-3.1-2.1c-4.9-8.2-10.1-16.2-14.3-24.8c-5.5-11.1-6.1-23-3.7-35.1c0.3-1.4,0.8-2.7,1.2-4c0.2-0.5,0.5-1,0.8-1.4c20.3,2.7,25.5,0,32.5-16.4c10.6,4.6,16.9,12.5,18.5,24.1c1.5,10.7-3.9,19.1-13.7,21.2c-6.3,1.4-13-1.7-15.7-7.1c-2.4-4.9-0.9-10.3,3.9-12.8c1.2-0.6,3-0.3,4.5-0.5c0,1.4,0.1,2.8,0.1,4.2c0,0.5-0.3,1-0.6,1.9c2.6-1.3,2.9-3.2,2.8-5.4c-0.1-2-0.8-3.5-2.8-4.4c-4.9-2.3-10.9,1-12.3,6.7c-1.7,7,0.9,13.8,6.9,18.3c5.9,4.4,12.1,4.3,18.1,0.5c8.8-5.7,15.4-13.1,14.3-24.5c-1.3-13.3-7.6-23.4-20.7-28.1c-2.5-0.9-3.8-2-4.6-4.7c-2.8-8.4-8.5-14.8-16-19.2c-8.1-4.8-16.5,0.6-16.3,10.1c0.1,4,3.1,7.3,7,7.9c3.9,0.6,5.7-1.2,6-6c-0.5,0.3-1,0.6-1.4,0.6c-1.2,0.1-2.4,0-3.6,0c0.2-1.3,0.1-2.9,0.8-3.8c1.8-2.4,4.5-2.5,7.2-1.7c7.3,2.2,10.6,8,13.7,14.8c-14.5-0.5-24.5,6.5-32.4,17.4c-4.7-1.9-8.7-4.8-12-8.5c-8.2-9.6-11-20.6-8.7-33c0.2-1.1,1.2-2.2,2.2-2.9c3.9-2.4,4.7-4.3,4.2-8.8c-0.1-0.9,0.6-2.3,1.4-3c8.8-7.1,18.8-9.8,29.9-7.6c9.1,1.8,16.9,6.5,24.2,12c16.3,12.2,27.6,28,36,46.5c12.5,27.3,23.1,55.2,31.4,84c3.3,11.3,8.1,22.1,11.8,33.3c2.6,7.7,4.4,15.6,6.8,23.4C416,325.1,418,330.6,419.8,336.1L419.8,336.1z M293,185.9c2-8.3,17.2-15.6,26.6-12.2C318.2,184.3,305.5,190.1,293,185.9L293,185.9z"/></svg>