<?xml version="1.0" encoding="utf-8"?>
<!-- Generator: Adobe Illustrator 16.0.0, SVG Export Plug-In . SVG Version: 6.00 Build 0)  -->
<!DOCTYPE svg PUBLIC "-//W3C//DTD SVG 1.1//EN" "http://www.w3.org/Graphics/SVG/1.1/DTD/svg11.dtd">
<svg version="1.1" id="Layer_1" xmlns="http://www.w3.org/2000/svg" xmlns:xlink="http://www.w3.org/1999/xlink" x="0px" y="0px"
	 width="256px" height="256px" viewBox="0 0 256 256" enable-background="new 0 0 256 256" xml:space="preserve">
<g>
	<defs>
		<rect id="SVGID_1_" width="256" height="256"/>
	</defs>
	<clipPath id="SVGID_2_">
		<use xlink:href="#SVGID_1_"  overflow="visible"/>
	</clipPath>
	<g clip-path="url(#SVGID_2_)">
		<defs>
			<path id="SVGID_3_" d="M30,0C13.418,0,0,13.418,0,30v196c0,16.582,13.418,30,30,30h196c16.582,0,30-13.418,30-30V30
				c0-16.582-13.418-30-30-30H30z"/>
		</defs>
		<clipPath id="SVGID_4_">
			<use xlink:href="#SVGID_3_"  overflow="visible"/>
		</clipPath>
		<rect x="-64" y="0.5" clip-path="url(#SVGID_4_)" fill="#FFFFFF" width="384" height="256"/>
		<rect x="-64" y="102.9" clip-path="url(#SVGID_4_)" fill="#FF0000" width="384" height="51.2"/>
		<rect x="102.4" y="0.5" clip-path="url(#SVGID_4_)" fill="#FF0000" width="51.2" height="256"/>
		<path clip-path="url(#SVGID_4_)" fill="#FF0000" d="M76.8,42.925c0,0-9.289,1.312-18.999,1.803
			c0.665-9.062,2.174-18.628,2.174-18.628h-17.55c0,0,1.278,9.051,1.783,18.624C34.439,44.229,25.6,42.925,25.6,42.925v17.55
			c0,0,9.155-1.637,18.646-2.252C43.771,68.177,42.425,77.3,42.425,77.3h17.55c0,0-1.683-9.406-2.279-19.033
			c9.2,0.646,19.104,2.208,19.104,2.208V42.925z"/>
		<path clip-path="url(#SVGID_4_)" fill="#FF0000" d="M76.8,196.524c0,0-9.289,1.312-18.999,1.804
			c0.665-9.063,2.174-18.628,2.174-18.628h-17.55c0,0,1.278,9.051,1.783,18.624c-9.769-0.495-18.608-1.8-18.608-1.8v17.551
			c0,0,9.155-1.638,18.646-2.253c-0.475,9.954-1.821,19.077-1.821,19.077h17.55c0,0-1.683-9.405-2.279-19.033
			c9.2,0.646,19.104,2.209,19.104,2.209V196.524z"/>
		<path clip-path="url(#SVGID_4_)" fill="#FF0000" d="M230.4,42.925c0,0-9.289,1.312-19,1.803
			c0.666-9.062,2.175-18.628,2.175-18.628h-17.55c0,0,1.276,9.051,1.782,18.624c-9.77-0.495-18.607-1.799-18.607-1.799v17.55
			c0,0,9.155-1.637,18.646-2.253c-0.476,9.955-1.82,19.079-1.82,19.079h17.55c0,0-1.684-9.406-2.278-19.034
			c9.199,0.646,19.104,2.208,19.104,2.208V42.925z"/>
		<path clip-path="url(#SVGID_4_)" fill="#FF0000" d="M230.4,196.524c0,0-9.289,1.312-19,1.804
			c0.666-9.063,2.175-18.628,2.175-18.628h-17.55c0,0,1.276,9.051,1.782,18.624c-9.77-0.495-18.607-1.8-18.607-1.8v17.551
			c0,0,9.155-1.638,18.646-2.253c-0.475,9.954-1.82,19.077-1.82,19.077h17.55c0,0-1.684-9.405-2.278-19.032
			c9.199,0.646,19.104,2.208,19.104,2.208V196.524z"/>
	</g>
	<g clip-path="url(#SVGID_2_)">
		<defs>
			<path id="SVGID_5_" d="M31.04,15.5c-8.547,0-15.54,6.993-15.54,15.54v193.92c0,8.547,6.993,15.54,15.54,15.54h193.92
				c8.547,0,15.54-6.993,15.54-15.54V31.04c0-8.547-6.993-15.54-15.54-15.54H31.04z"/>
		</defs>
		<clipPath id="SVGID_6_">
			<use xlink:href="#SVGID_5_"  overflow="visible"/>
		</clipPath>
		<defs>
			<filter id="Adobe_OpacityMaskFilter" filterUnits="userSpaceOnUse" x="-97" y="-97" width="450" height="450">
				<feColorMatrix  type="matrix" values="1 0 0 0 0  0 1 0 0 0  0 0 1 0 0  0 0 0 1 0"/>
			</filter>
		</defs>
		<mask maskUnits="userSpaceOnUse" x="-97" y="-97" width="450" height="450" id="SVGID_7_">
			<g filter="url(#Adobe_OpacityMaskFilter)">
				
					<linearGradient id="SVGID_8_" gradientUnits="userSpaceOnUse" x1="0" y1="256" x2="1" y2="256" gradientTransform="matrix(215.87 -215.87 -215.87 -215.87 55282.7969 55498.7305)">
					<stop  offset="0" style="stop-color:#1A1A1A"/>
					<stop  offset="0.3684" style="stop-color:#1C1C1C"/>
					<stop  offset="0.59" style="stop-color:#242424"/>
					<stop  offset="0.7726" style="stop-color:#333333"/>
					<stop  offset="0.9332" style="stop-color:#474747"/>
					<stop  offset="0.9694" style="stop-color:#4D4D4D"/>
					<stop  offset="1" style="stop-color:#333333"/>
				</linearGradient>
				<polygon clip-path="url(#SVGID_6_)" fill="url(#SVGID_8_)" points="-97,128 128,-97 353,128 128,353 				"/>
			</g>
		</mask>
		
			<linearGradient id="SVGID_9_" gradientUnits="userSpaceOnUse" x1="0" y1="256" x2="1" y2="256" gradientTransform="matrix(215.87 -215.87 -215.87 -215.87 55282.7969 55498.7305)">
			<stop  offset="0" style="stop-color:#FFFFFF"/>
			<stop  offset="0.9694" style="stop-color:#FFFFFF"/>
			<stop  offset="1" style="stop-color:#FFFFFF"/>
		</linearGradient>
		<polygon clip-path="url(#SVGID_6_)" mask="url(#SVGID_7_)" fill="url(#SVGID_9_)" points="-97,128 128,-97 353,128 128,353 		"/>
	</g>
	<g clip-path="url(#SVGID_2_)">
		<defs>
			<rect id="SVGID_10_" width="256" height="256"/>
		</defs>
		<clipPath id="SVGID_11_">
			<use xlink:href="#SVGID_10_"  overflow="visible"/>
		</clipPath>
		<g opacity="0.1" clip-path="url(#SVGID_11_)">
			<g>
				<defs>
					<rect id="SVGID_12_" width="256" height="256"/>
				</defs>
				<clipPath id="SVGID_13_">
					<use xlink:href="#SVGID_12_"  overflow="visible"/>
				</clipPath>
				<path clip-path="url(#SVGID_13_)" fill="#231F20" d="M226,15.5c7.995,0,14.5,6.505,14.5,14.5v196c0,7.995-6.505,14.5-14.5,14.5
					H30c-7.995,0-14.5-6.505-14.5-14.5V30c0-7.995,6.505-14.5,14.5-14.5H226 M226,0H30C13.5,0,0,13.5,0,30v196c0,16.5,13.5,30,30,30
					h196c16.5,0,30-13.5,30-30V30C256,13.5,242.5,0,226,0"/>
			</g>
		</g>
	</g>
</g>
</svg>
