<?xml version="1.0" encoding="utf-8"?>
<!-- Generator: Adobe Illustrator 16.0.0, SVG Export Plug-In . SVG Version: 6.00 Build 0)  -->
<!DOCTYPE svg PUBLIC "-//W3C//DTD SVG 1.1//EN" "http://www.w3.org/Graphics/SVG/1.1/DTD/svg11.dtd">
<svg version="1.1" id="Layer_1" xmlns="http://www.w3.org/2000/svg" xmlns:xlink="http://www.w3.org/1999/xlink" x="0px" y="0px"
	 width="522px" height="934px" viewBox="0 0 522 934" enable-background="new 0 0 522 934" xml:space="preserve">
<g>
	<path fill-rule="evenodd" clip-rule="evenodd" fill="#979797" d="M506.479,202.191c-20.529,2.643-37.82,11.618-51.837,26.673
		c-18.707,20.093-28.659,43.361-24.641,71.377c0.102,0.708,0.013,1.445,0.013,2.168c-3.449-12.945-5.468-26.033-3.751-39.385
		c1.73-13.461,6.646-25.964,13.15-37.719c5.668-10.247,12.277-19.971,18.401-29.969c6.396-10.445,12.093-21.212,15.271-33.16
		c2.461-9.251,1.563-17.93-3.424-26.236c-5.057-8.423-11.943-15.19-19.065-21.752c-2.456-2.261-3.992-4.862-4.159-8.105
		c-0.189-3.688-0.043-7.393-0.043-11.702c-0.411,1.32-0.66,2.034-0.849,2.764c-0.121,0.471-0.135,0.968-0.225,1.448
		c-2.354,12.549,1.932,23.036,9.942,32.432c2.405,2.82,4.7,5.764,6.747,8.85c5.827,8.787,7.781,18.372,5.839,28.819
		c-1.314,7.074-4.54,13.295-8.034,19.399c-8.886,15.52-18.036,30.89-26.846,46.452c-6.924,12.233-11.232,25.349-11.894,39.503
		c-0.132,2.83-0.019,5.672-0.019,8.508c-0.861-1.169-1.316-2.431-1.811-3.676c-8.425-21.231-14.021-43.288-19.138-65.486
		c-1.197-5.197-0.4-10.139,2.091-14.765c2.68-4.975,6.409-8.826,12.531-8.738c6.224,0.092,10.682,3.413,13.616,8.745
		c2.586,4.701,3.251,9.876,2.568,15.09c-0.974,7.439-2.338,14.827-3.587,22.558c2.128-5.687,4.162-11.055,6.149-16.439
		c2.461-6.665,2.957-13.515,1.829-20.506c-1.369-8.465-7.077-14.635-14.503-15.665c-10.621-1.473-20.936,6.386-22.368,17.037
		c-0.104,0.762-0.266,1.515-0.4,2.272c-1.051-2.33-1.641-4.588-2.007-6.883c-4.336-27.211-8.567-54.439-12.973-81.64
		c-4.241-26.179-9.788-52.04-19.314-76.904c-5.045-13.17-10.4-26.163-18.898-37.558h-9.286c5.852,7.355,10.244,15.608,13.454,24.473
		c4.02,11.104,7.454,22.419,11.11,33.654c6.294,19.337,11.749,38.895,15.49,58.907c4.651,24.865,9.349,49.72,14.114,74.563
		c1.004,5.236,2.384,10.4,3.59,15.598c-0.864-0.48-1.246-1.116-1.539-1.792c-3.504-8.063-7.017-16.123-10.484-24.2
		c-8.05-18.753-19.791-34.775-35.593-47.713c-10.887-8.915-22.804-15.894-37.121-17.529c-11.411-1.305-22.086,0.176-30.479,9.182
		c-0.452,0.486-1.757,0.56-2.507,0.324c-4.635-1.453-9.127-0.97-12.791,2.033c-3.115,2.553-6.231,5.553-8.167,9.015
		c-6.492,11.612-8.397,24.522-7.214,37.468c1.236,13.536,5.17,26.647,10.543,39.204c7.495,17.515,18.551,32.766,30.533,47.406
		c0.833,1.018,1.681,2.025,2.752,3.318c-0.851,0.093-1.214,0.183-1.57,0.164c-16.662-0.86-32.705,2.301-48.348,7.691
		c-30.018,10.343-53.206,28.4-65.639,58.535c-0.51,1.235-1.987,2.329-3.274,2.949c-25.176,12.129-46.453,28.83-61.579,52.652
		c-3.552,5.593-5.958,11.96-9.819,17.301c-7.725,10.681-15.799,21.144-24.28,31.234c-7.412,8.818-17.151,14.71-27.754,19.116
		c-17.512,7.275-31.046-3.047-37.601-12.985c-1.526-2.315-2.295-5.399-2.558-8.21c-0.333-3.557,2.81-6.838,6.442-7.692
		c3.205-0.753,5.391,0.499,7.425,4.25c0.158,0.289,0.334,0.568,0.69,1.167c-0.235-7.272-4.688-10.913-11.249-9.405
		c-5.671,1.304-8.941,5.267-10.901,10.501c-0.439,1.169-0.823,2.359-1.231,3.54c0,1.565,0,3.128,0,4.693
		c0.202,0.542,0.462,1.07,0.596,1.628c2.251,9.339,7.899,15.862,16.74,19.383c10.218,4.069,20.369,2.751,30.253-1.392
		c12.167-5.101,22.397-13.075,31.979-21.97c0.484-0.45,1.033-0.829,1.552-1.24c-0.177,0.988-0.579,1.655-1.018,2.295
		c-10.687,15.584-17.625,32.299-16.953,51.709c0.222,6.385-0.358,13.018-1.92,19.196c-3.75,14.837-13.281,25.748-25.982,33.771
		c-3.845,2.428-8.544,3.842-13.049,4.794c-4.73,1-8.797-1.204-10.84-5.669c-1.27-2.77-1.921-5.939-2.239-8.992
		c-0.284-2.719,0.552-5.384,3.324-6.98c1.318,4.45,1.986,5.387,4.299,5.657c2.358,0.274,4.457-0.141,5.805-2.453
		c1.39-2.384,1.802-4.724,0.167-7.147c-3.76-5.574-11.424-4.921-15.3,1.305c-6.322,10.153,1.859,25.649,13.92,26.361
		c7.457,0.439,13.913-2.311,19.424-6.942c21.243-17.848,33.975-39.661,30.787-68.5c-1.098-9.928,1.172-19.065,5.993-27.603
		c4.372-7.742,9.067-15.298,13.622-22.936c1.131-1.897,2.265-3.793,3.398-5.689c0.26,0.616,0.151,1.065,0.014,1.507
		c-4.01,12.94-5.445,26.206-4.646,39.683c1.102,18.566,11.206,31.282,28.908,36.774c7.495,2.326,14.491,1.308,20.917-3.232
		c13.804-9.755,18.973-31.067,11.181-46.044c-1.93-3.71-4.716-6.528-8.666-8.174c4.115,4.193,7.003,9.022,7.094,14.958
		c0.122,8.014-2.911,15.137-7.456,21.533c-9.618,13.542-28.86,13.146-38.221-0.664c-3.648-5.379-5.356-11.479-6.334-17.805
		c-3.779-24.449,2.2-46.934,15.022-67.506c14.048-22.539,34.441-38.107,58.19-49.487c0.401-0.192,0.855-0.273,1.304-0.413
		c0.093,0.357,0.193,0.543,0.174,0.716c-0.044,0.386-0.13,0.77-0.23,1.147c-4.083,15.353-4.292,30.89-2.342,46.558
		c1.896,15.24,6.999,29.63,11.497,44.184c0.923,2.984,1.359,3.261,4.116,3.608c-2.714-12.915-5.889-26.006-8.153-39.253
		c-3.506-20.503-0.576-40.509,6.276-60.001c0.462-1.312,1.586-2.788,2.794-3.365c3.873-1.848,7.846-3.57,11.929-4.879
		c27.941-8.954,56.342-10.259,84.745-3.144c34.552,8.656,64.941,25.568,91.748,48.961c0.274,0.24,0.44,0.606,0.602,0.838
		c-6.389,12.839-1.631,23.981,5.011,34.937c-7.515,6.285-7.455,14.304-5.051,22.96c-1.971-0.458-3.85-1.511-5.215-1.047
		c-1.503,0.509-2.532,2.414-4.057,4.016c2.13,0.866,3.687,1.801,5.364,2.125c4.698,0.906,7.968,3.22,10.093,7.704
		c1.464,3.087,3.962,5.685,6.24,8.835c-1.358-0.116-2.227-0.171-3.092-0.266c-24.19-2.639-44.997,4.497-62.155,21.787
		c-4.376,4.41-9.791,4.787-15.093,3.947c-3.56-0.563-5.985,0.011-8.483,2.555c2.585,5.793,7.831,6.097,13.285,6.011
		c-2.46,4.997-4.751,9.65-6.973,14.163c-1.518-3.632-3.017-7.212-4.515-10.793c-0.437,0.066-0.874,0.131-1.311,0.196
		c-5.773,15.229-7.344,31.468-10.728,47.284c-0.127-16.209,3.715-31.847,6.932-47.916c-2.716,2.592-5.101,4.857-7.475,7.136
		c-6.364,6.113-10.478,13.594-11.412,22.27c-0.937,8.705-1.047,17.529-1.009,26.3c0.041,8.921,3.185,17.192,6.486,25.743
		c2.874-3.998,5.687-7.619,8.177-11.449c2.444-3.759,4.782-7.624,6.764-11.64c1.974-3.998,3.445-8.244,5.292-12.76
		c6.03,28,21.615,46.579,49.914,52.962c-0.09,1.183-0.166,1.948-0.204,2.713c-0.385,7.864,0.161,15.625,2.643,23.16
		c5.292,16.065,21.495,33.522,44.404,31.162c16.524-1.704,31.023-13.147,35.108-29.23c3.16-12.446,0.951-24.289-4.985-35.452
		c-3.202-6.021-8.527-9.567-15.173-11.023c-2.06-0.451-4.183-0.613-6.628-0.956c6.122-9.933,7.044-20.829,6.685-32.122
		c5.21,0.298,9.669,2.002,13.758,4.52c17.19,10.579,26.604,25.645,25.54,46.219c-0.986,19.04-4.511,37.798-11.174,55.558
		c-7.606,20.272-16.411,40.152-25.709,59.721c-12.869,27.085-27.095,53.527-39.951,80.617
		c-8.408,17.719-15.418,36.104-23.055,54.188c-0.372,0.881-0.757,1.756-1.135,2.635c-0.393-0.479-0.386-0.764-0.33-1.037
		c4.669-22.68,8.973-45.443,14.111-68.014c5.887-25.863,6.406-51.456-1.035-77.083c-5.611-19.318-15.624-35.479-32.493-46.978
		c-11.171-7.616-23.506-11.775-36.885-9.442c-31.635,5.517-55.643,21.832-69.522,51.547c-0.277,0.593-0.643,1.146-0.916,1.628
		c-9.402-1.621-18.607-3.208-26.992-4.653c2.264,3.751,5.509,7.721,7.248,12.268c5.405,14.127,13.554,26.8,20.449,40.131
		c0.937,1.813,2.073,3.553,3.322,5.168c5.231,6.76,14.595,12.314,25.445,8.314c0.345-0.125,0.714-0.184,1.293-0.33
		c0.335,1.365,0.64,2.611,1.035,4.223c0.468-2.141,0.278-4.443,1.331-5.461c2.538-2.453,5.656-4.303,8.413-6.303
		c0.719,9.574,1.183,19.109,2.196,28.586c2.995,28.025,8.689,55.541,19.856,81.455c10.352,24.027,22.222,47.398,33.418,71.061
		c1.203,2.543,2.377,5.1,3.564,7.65c9.583,0,19.167,0,28.751,0c0.667-6.898,1.461-13.787,1.979-20.695
		c2.362-31.516,12.931-60.861,24.019-90.02c17.267-45.412,36.683-89.902,58.043-133.549c11.602-23.707,18.736-48.849,22.676-74.9
		c2.015-13.318,5.042-26.653,5.309-40.028c0.502-24.901-0.246-49.893-5.364-74.431c-1.362-6.532-4.144-12.767-6.474-19.733
		c2.526-2.79,6.433-4.892,10.647-6.499c7.648-2.917,15.314-5.79,23.302-8.806c0.135,0.326,0.545,1.162,0.836,2.038
		c12.502,37.578,17.439,76.017,14.067,115.591c-3.214,37.735-12.872,73.752-26.466,108.968
		c-12.794,33.143-27.921,65.188-43.719,96.95c-16.729,33.633-31.905,67.939-43.316,103.764
		c-4.321,13.564-7.302,27.555-10.895,41.352c2.934,0,5.867,0,8.801,0c0.316-1.02,0.71-2.025,0.939-3.063
		c5.578-25.381,14.333-49.74,24.036-73.764c15.45-38.248,32.859-75.627,50.933-112.689c22.489-46.114,39.399-93.976,47.03-144.934
		c3.65-24.384,3.291-48.76,0.881-73.111c-2.183-22.056-7.566-43.483-15.418-64.245c-0.566-1.5-0.788-2.561,0.709-3.792
		c6.439-5.3,11.393-11.844,14.941-19.351c3.53-7.471,6.836-15.051,10.109-22.641v-22.602c-3.904,0.563-7.85,0.895-11.855,0.917
		c-4.186,0.023-8.463,0.25-12.533,1.146c-8.246,1.818-16.381,4.156-24.863,6.358c0.008,0.014-0.38-0.654-0.695-1.354
		c-12.591-27.974-25.184-55.947-37.735-83.941c-0.503-1.123-0.851-2.437-0.83-3.655c0.166-9.268-0.273-18.623,0.837-27.785
		c1.941-16.011,7.264-31.095,16.901-44.15c10.859-14.713,25.397-24.764,42.755-30.554c9.541-3.184,18.912-4.062,28.02-2.083v-6.326
		C516.963,201.646,511.807,201.506,506.479,202.191z M250.665,746.264c-3.264-13.389-11.261-23.811-20.826-33.269
		c-0.846-0.835-1.318-2.048-1.964-3.085c0.331-0.2,0.661-0.399,0.991-0.6c13.472,9.368,21.132,22.604,25.419,38.303
		C252.526,748.084,251.171,748.344,250.665,746.264z M267.903,736.76c-1.091,2.828-3.217,5.313-5.151,7.73
		c-0.956,1.197-2.53,1.898-3.789,2.799c-0.389-6.014-0.783-11.623-1.064-17.238c-0.029-0.578,0.482-1.373,0.98-1.756
		c1.455-1.118,3.029-2.077,4.813-3.27c-2.132-1.984-3.256-2.801-4.055-3.863c-0.444-0.591-0.702-1.791-0.389-2.352
		c0.322-0.576,1.432-0.961,2.212-0.988c2.743-0.096,4.495,1.504,5.846,3.727C270.324,726.516,269.837,731.754,267.903,736.76z
		 M262.554,705.307c-5.182-1.527-8.968,1.4-12.479,4.411c-2.747-3.147-5.151-6.497-8.153-9.175c-2.945-2.625-6.5-4.565-9.853-6.852
		c13.807-34.058,57.067-58.202,90.864-44.974c-18.589,7.711-30.541,21.411-38.788,38.706c-4.307,9.032-8.334,18.198-12.456,27.231
		C269.554,711.127,267.441,706.748,262.554,705.307z M332.28,925.401c-0.044,0.676-0.126,1.348-0.226,2.414
		c-19.441-37.578-39.671-74.236-51.239-114.752c-5.592-19.582-8.552-39.504-7.962-59.914c0.464-16.072,5.323-31.118,10.568-46.086
		c4.149-11.842,8.698-23.556,16.411-33.563c3.952-5.126,8.668-9.825,13.708-13.889c2.953-2.381,7.109-3.624,10.925-4.491
		c4.921-1.119,8.956,1.538,11.014,6.239c2.77,6.329,1.829,12.197-3.117,19.436c7.592-2.207,9.334-8.783,6.587-23.655
		c1.64,1.793,3.45,3.46,4.887,5.403c7.105,9.612,11.038,20.555,13.531,32.155c5.049,23.486,4.726,46.967,0.32,70.477
		c-6.625,35.338-13.285,70.668-19.921,106.004C334.4,889.096,333.472,907.262,332.28,925.401z M253.803,180.613
		c-2.799-14.324-0.198-28.247,5.53-41.52c3.053-7.075,7.845-10.072,13.639-9.475c0.378,0.04,0.746,0.179,1.261,0.307
		c-0.059,0.417-0.025,0.814-0.172,1.126c-10.76,22.819-4.787,44.161,14.852,59.355c2.697,2.085,5.506,4.023,8.228,6.004
		c-1.203,4.091-2.563,8.058-3.523,12.121c-1.953,8.25-0.741,16.299,1.978,24.208c3.875,11.277,9.823,21.471,16.338,31.37
		c0.428,0.651,0.864,1.299,1.266,1.968c0.086,0.145,0.034,0.372,0.049,0.641c-5.406-0.691-10.801-1.34-16.174-2.119
		c-0.652-0.095-1.291-0.822-1.782-1.389C274.495,239.179,259.926,211.954,253.803,180.613z M344.05,341.142
		c-19.173-9.963-38.896-18.742-60.382-22.862c-30.884-5.922-61.244-5.152-90.937,6.112c-1.254,0.476-2.508,0.957-3.761,1.436
		c-0.26-0.248-0.519-0.496-0.778-0.743c3.108-4.468,5.952-9.149,9.369-13.366c19.908-24.561,46.072-37.109,77.296-39.574
		c6.517-0.515,13.086-0.387,19.631-0.541c3.072-0.072,5.429,1.005,7.698,3.324c7.655,7.823,15.566,15.4,23.482,22.961
		c1.467,1.401,3.419,2.292,5.147,3.419c0.155-0.223,0.31-0.444,0.465-0.666c-8.905-9.069-17.811-18.138-26.716-27.207
		c0.187-0.327,0.374-0.653,0.56-0.981c4.651,0.851,9.309,1.667,13.943,2.595c0.574,0.115,1.064,0.794,1.534,1.271
		c15.717,15.934,31.279,32.025,47.173,47.781c25.273,25.054,50.786,49.867,76.144,74.835c2.626,2.585,4.898,5.531,7.217,8.556
		c-7.968-2.503-15.078-1.109-21.191,3.752c-6.018-6.458-11.727-12.995-17.868-19.097
		C391.786,371.987,369.481,354.358,344.05,341.142z M439.453,425.161c-1.084-1.961-2.265-3.905-3.673-5.641
		c-1.394-1.72-0.895-2.854,0.472-4.208c3.104-3.073,6.851-4.265,11.006-3.379c2.967,0.634,5.785,1.973,9.105,3.151
		c-9.757,10.227-15.287,21.801-18.503,35.401c-3.575-5.583-5.665-10.976-6.189-17.089c0.923,1.078,1.849,2.157,2.971,3.469
		c1.779-3.16,3.528-6.083,5.055-9.118C440.034,427.079,439.846,425.872,439.453,425.161z M382.176,379.83
		c7.044,6.724,13.956,12.9,20.37,19.555c7.044,7.307,13.644,15.044,20.393,22.633c0.607,0.683,1.258,1.656,1.26,2.495
		c0.023,9.623,4.418,17.555,10.053,24.775c2.719,3.486,3.616,6.834,2.732,10.657c-15.458-13.735-31.01-27.551-47.054-41.806
		c10.045-2.725,15.514,3.915,21.694,8.975c-3.776-7.413-8.651-13.849-15.908-18.158c-3.814-2.266-7.945-2.374-12.287-0.99
		C379.25,398.771,379.055,389.653,382.176,379.83z M384.933,432.6c-0.637-4.398,0.75-9.367,3.695-11.847
		c12.903,10.98,25.612,21.767,38.277,32.603c2.073,1.774,3.762,4.042,5.963,5.609c4.512,3.213,5.41,7.762,5.445,13.127
		c-0.685-0.619-1.237-1.049-1.709-1.555c-12.725-13.639-27.541-24.246-45.3-30.227C387.094,438.891,385.511,436.601,384.933,432.6z
		 M440.988,483.652c-0.231,0.241-0.461,0.48-0.692,0.721c-0.62-0.917-1.148-1.914-1.871-2.74
		c-10.961-12.552-24.253-21.391-40.559-25.446c-0.773-0.192-1.661-0.731-2.089-1.377c-2.365-3.566-4.605-7.216-6.888-10.838
		c0.181-0.352,0.361-0.703,0.541-1.056c4.633,1.674,9.41,3.039,13.875,5.084c12.479,5.716,23.447,13.486,32.52,23.974
		C438.878,475.501,440.659,479.14,440.988,483.652z M336.671,472.045c11.027-9.676,23.831-14.319,38.51-13.587
		c3.412,0.17,6.82,0.52,10.215,0.918c5.887,0.691,11.425,2.049,15.673,6.795c1.903,2.126,4.521,3.611,6.816,5.387
		c0.122-0.146,0.242-0.293,0.364-0.439c-1.713-2.236-3.426-4.473-5.139-6.709c19.554,8.084,35.906,19.667,44.274,40.06
		c-0.116-0.043-0.395-0.058-0.503-0.201c-10.962-14.528-26.08-22.624-43.055-27.867c-14.596-4.509-29.542-5.556-44.67-4.358
		c-8.255,0.653-16.477,1.742-25.47,2.067C334.685,473.426,335.766,472.837,336.671,472.045z M383.998,583.483
		c-0.737,1.047-1.77,2.172-2.915,2.6c-8.177,3.063-16.605,2.668-25.914,1.725c1.13-4.903,1.636-9.621,3.306-13.882
		c6.92-17.667,18.578-30.584,37.567-35.574c2.621-0.688,5.395-0.792,8.099-1.166c1.685-0.234,2.454,0.367,2.561,2.199
		c0.638,10.924-1.718,21.156-6.999,30.704c-0.501,0.907-1.58,1.692-2.569,2.099C391.487,574.51,387.436,578.599,383.998,583.483z
		 M390.426,586.218c-0.841,1.677-1.611,3.209-2.477,4.934C386.151,588.132,386.218,587.997,390.426,586.218z M407.2,573.122
		c8.58-0.397,18.523,5.905,21.445,14.611c4.164,12.406,4.499,24.684-3.405,36.177c-8.783,12.771-22.093,17.859-37.046,13.822
		c-21.123-5.704-35.419-26.484-32.394-47.596c8.77,2.063,17.342,1.466,26.103-0.991c-0.317,4.521,1.066,8.069,3.829,11.075
		c3.412,3.713,8.445,4.251,12.436,1.36c3.112-2.253,4.455-8.424,2.532-12.018c-1.796-3.357-4.989-4.041-8.15-4.081
		c3.9-3.847,7.842-7.822,11.914-11.662C405.066,573.25,406.266,573.165,407.2,573.122z M458.108,571.076
		c-0.15,2.611-0.457,5.212-1.27,7.884c-0.303-1.911-0.622-3.819-0.906-5.734c-1.271-8.619-4.066-16.635-8.899-23.968
		c-7.522-11.41-17.724-18.577-31.433-20.221c-2.314-0.277-3.195-1.08-3.814-3.321c-3.266-11.836-9.952-21.358-20.172-28.236
		c-10.065-6.774-19.19-4.599-27.161,5.787c-1.076,1.402-1.613,3.347-1.994,5.126c-1.668,7.794,2.487,18.028,8.885,22.243
		c6.229,4.104,13.871,2.364,17.813-4.058c3.443-5.609,1.138-13.437-4.451-16.547c0.538,1.847,1.7,4.065,1.731,6.299
		c0.069,5.118-4.791,7.898-9.258,5.377c-5.09-2.873-6.05-7.877-5.936-13.157c0.104-4.783,2.497-8.425,7.002-9.802
		c2.43-0.743,5.408-0.319,7.998,0.236c4.145,0.889,7.376,3.515,10.013,6.781c5.181,6.418,7.635,13.951,9.016,22.289
		c-2.922,0.551-5.537,0.893-8.073,1.546c-17.407,4.473-28.849,15.972-36.122,31.782c-3.69,8.025-6.239,16.576-9.41,25.178
		c-0.168-0.057-0.979-0.266-1.74-0.593c-22.775-9.766-34.708-27.166-36.737-51.735c-1.44-17.446,3.468-33.224,11.979-48.132
		c0.512-0.898,1.588-1.859,2.552-2.057c12.343-2.533,24.644-5.403,37.092-7.266c23.494-3.517,61.504,7.558,77.702,35.479
		c8.048,13.875,13.75,28.265,16.158,43.943C459.414,561.017,458.395,566.112,458.108,571.076z M459.082,523.357
		c-0.398-1.123-0.707-1.739-0.833-2.392c-2.239-11.625-5.897-22.639-13.436-32.058c-0.57-0.712-0.781-2.013-0.621-2.949
		c0.473-2.771,1.213-5.498,1.849-8.242c0.271-0.043,0.544-0.084,0.815-0.127C455.182,491.456,459.541,506.44,459.082,523.357z
		 M504.054,411.949c0.095,0.141,0.192,0.284,0.288,0.424c-6.744,5.079-13.488,10.157-20.504,15.439
		c-0.497-0.859-1.051-1.814-1.938-3.348C489.387,420.235,496.721,416.092,504.054,411.949z M475.107,430.049
		c0.676-0.558,1.369-1.097,2.072-1.619c0.139-0.103,0.364-0.085,0.672-0.147c1.669,2.114,1.881,3.716-0.213,6.186
		c-6.235,7.353-12.522,14.758-17.811,22.788c-3.798,5.766-6.022,12.568-8.957,18.926c-3.51-2.96-3.557-3.095-1.88-7.549
		C454.619,453.691,462.63,440.358,475.107,430.049z M467.417,402.874c0.47,0.721,0.735,1.575,1.163,2.514
		c-3.467,2.572-6.88,5.102-10.452,7.751c-1.337-1.774-4.363-2.087-4.013-5.266c0.058-0.525-0.686-1.139-1.061-1.71
		c-11.169-16.972-25.563-31.024-40.302-44.797c-22.993-21.487-45.903-43.063-68.747-64.709c-4.817-4.565-9.216-9.576-13.761-14.427
		c-1.249-1.332-2.325-2.828-3.48-4.25c0.117-0.181,0.234-0.362,0.351-0.542c1.548,0.481,3.102,0.949,4.644,1.448
		c22.872,7.401,42.582,20.292,61.149,35.18c17.692,14.185,34.01,29.861,47.617,47.961
		C450.301,375.033,458.523,389.206,467.417,402.874z M438.237,351.099c-0.151,0.091-0.302,0.185-0.451,0.277
		c-0.996-1.15-1.995-2.297-2.985-3.451c-24.167-28.156-52.554-51.019-85.797-67.59c-8.183-4.08-16.998-6.889-25.488-10.365
		c-1.195-0.489-2.605-1.214-3.22-2.245c-5.095-8.551-10.505-16.962-14.889-25.875c-5.703-11.593-6.401-24.036-3.865-36.653
		c0.288-1.428,0.811-2.813,1.291-4.195c0.185-0.533,0.552-1.001,0.807-1.448c21.165,2.8,26.662,0.044,33.958-17.119
		c11.088,4.858,17.662,13.073,19.329,25.132c1.553,11.226-4.06,19.974-14.271,22.196c-6.579,1.431-13.573-1.736-16.417-7.436
		c-2.535-5.082-0.937-10.722,4.076-13.331c1.294-0.674,3.108-0.35,4.682-0.484c0.052,1.458,0.154,2.918,0.129,4.375
		c-0.01,0.522-0.328,1.04-0.634,1.941c2.693-1.369,3.013-3.378,2.926-5.618c-0.085-2.118-0.843-3.67-2.908-4.639
		c-5.064-2.377-11.349,1.024-12.82,7.05c-1.782,7.294,0.932,14.428,7.227,19.1c6.191,4.595,12.683,4.502,18.891,0.491
		c9.217-5.955,16.093-13.729,14.943-25.638c-1.346-13.927-7.969-24.411-21.581-29.397c-2.643-0.967-3.92-2.124-4.843-4.868
		c-2.946-8.768-8.907-15.414-16.742-20.061c-8.46-5.016-17.247,0.609-17.023,10.515c0.093,4.157,3.204,7.645,7.358,8.249
		c4.049,0.59,5.939-1.232,6.212-6.235c-0.566,0.266-1.016,0.639-1.485,0.667c-1.253,0.075-2.514,0.002-3.771-0.011
		c0.237-1.337,0.067-2.978,0.792-3.952c1.879-2.523,4.74-2.597,7.482-1.777c7.589,2.265,11.053,8.372,14.347,15.471
		c-15.137-0.521-25.539,6.75-33.821,18.228c-4.938-1.955-9.075-4.967-12.479-8.922c-8.593-9.988-11.445-21.569-9.06-34.44
		c0.206-1.113,1.274-2.349,2.285-2.979c4.022-2.511,4.947-4.474,4.432-9.222c-0.106-0.985,0.644-2.436,1.463-3.093
		c9.19-7.372,19.624-10.284,31.252-7.936c9.498,1.919,17.62,6.803,25.267,12.534c16.997,12.738,28.798,29.298,37.61,48.575
		c13.027,28.496,24.109,57.619,32.787,87.729c3.401,11.801,8.423,23.125,12.321,34.795c2.687,8.042,4.624,16.331,7.062,24.459
		C434.348,339.677,436.353,345.369,438.237,351.099z M305.867,194.176c2.094-8.643,17.994-16.348,27.737-12.718
		C332.206,192.567,318.902,198.595,305.867,194.176z"/>
	<path fill-rule="evenodd" clip-rule="evenodd" fill="#979797" d="M494.072,320.016c-11.141-14.714-14.455-31.641-11.723-49.679
		c1.244-8.212,5.75-14.665,13.213-18.742c2.621-1.431,5.377-1.855,8.129-0.356c7.694,4.191,8.648,17.342,1.68,22.673
		c-2.195,1.679-4.274,1.627-6.351-0.211c-2.708-2.396-3.248-5.397-2.487-8.85c-2.467,2.929-4.094,6.033-3.227,9.93
		c1.008,4.529,5.06,8.226,10.078,9.075c5.165,0.875,9.557-0.447,12.518-5.007c3.986-6.137,4.895-12.946,3.625-19.997
		c-1.386-7.681-5.775-12.202-12.583-13.266c-7.491-1.17-13.577,1.743-18.796,6.875c-16.667,16.396-22.848,55.572,6.572,77.553
		c8.122,6.069,17.139,9.566,27.279,8.65v-3.394C511.331,335.026,501.543,329.881,494.072,320.016z"/>
	<path fill-rule="evenodd" clip-rule="evenodd" fill="#979797" d="M482.167,719.918c-10.889,24.651-22.596,48.944-34.156,73.292
		c-10.976,23.115-22.514,45.969-33.285,69.18c-10.611,22.865-17.668,46.951-22.78,71.611c1.174,0,2.347,0,3.521,0
		c0.464-2.174,0.79-4.391,1.415-6.516c6.321-21.494,14.863-42.158,23.578-62.756c4.256-10.063,7.836-20.482,12.927-30.104
		c8.625-16.299,19.858-30.893,32.554-44.27c11.615-12.238,22.749-25.07,37.963-33.236c2.751-1.477,5.344-3.242,7.992-4.904
		c3.345-2.098,6.708-4.158,10.104-6.156v-2.699c-3.474,2.234-6.883,4.588-10.217,7.084c-1.869,1.4-3.943,2.529-5.93,3.773
		c-0.408,0.256-0.843,0.469-1.916,1.057c0.512-0.807,0.614-1.105,0.821-1.275c5.608-4.592,11.347-8.957,17.241-13.035v-5.982
		c-7.015,4.752-13.815,9.867-20.445,15.258c-20.389,16.574-39.6,34.34-54.029,56.633c-0.151,0.234-0.421,0.391-0.634,0.584
		c1.486-3.863,3.257-7.438,5.032-11.012c15.43-31.066,31.432-61.951,41.631-95.221c7.391-24.104,17.6-46.928,28.445-69.482v-8.979
		c-3.104,6.694-5.914,13.538-8.645,20.417c-0.363,0.917-0.775,1.813-1.164,2.718c-0.02-2.861,0.369-5.586,1.299-8.113
		c4.134-11.253,6.443-22.945,8.51-34.673v-38.443c-3.738,20.194-7.462,40.393-11.592,60.508
		C503.76,657.559,495.567,689.581,482.167,719.918z"/>
	<path fill-rule="evenodd" clip-rule="evenodd" fill="#979797" d="M456.79,687.494c12.468-32.551,23.502-65.402,26.458-100.538
		c3.009-35.769-0.934-70.415-13.927-103.943c-0.27-0.693-0.676-1.333-1.104-2.168c-1.488,0.677-2.811,1.272-4.126,1.88
		c-1.31,0.604-2.612,1.223-4.021,1.884c0.395,1.164,0.698,2.075,1.013,2.982c6.491,18.653,10.831,37.79,11.797,57.531
		c1.925,39.326-3.908,77.62-16.885,114.731c-6.866,19.632-14.899,38.771-24.557,57.315c-9.913,19.038-18.262,38.899-27.086,58.493
		c-19.192,42.619-35.322,86.256-43.168,132.568c-1.45,8.563-2.578,17.178-3.855,25.771c2.935,0,5.869,0,8.801,0
		c0.18-0.859,0.384-1.717,0.534-2.58c6.931-39.723,17.685-78.338,34.308-115.137C420.234,773.635,440.039,731.229,456.79,687.494z"
		/>
	<path fill-rule="evenodd" clip-rule="evenodd" fill="#979797" d="M501.554,892.602c-11.759-10.369-25.634-15.367-41.542-14.313
		c-13.882,0.92-25.839,5.656-35.095,16.395c-2.741,3.18-5.693,6.178-8.541,9.266c-1.062,1.148-2.103,2.314-3.152,3.475
		c-0.978,1.08-1.954,2.16-2.932,3.24c0.875,0.082,1.369-0.203,1.876-0.459c16.512-8.369,33.818-11.973,52.234-8.486
		c12.858,2.434,24.387,8.193,35.604,14.66c2.027,1.17,4.027,2.389,6.04,3.584c-0.774,0.26-1.307,0.08-1.81-0.152
		c-15.115-7.006-30.943-11.41-47.525-13.102c-12.29-1.256-24.209-0.227-35.386,5.553c-0.677,0.35-1.287,0.828-2.502,1.625
		c5.593,0.119,10.226,0.973,14.068,3.969c6.77,5.281,13.393,10.752,20.077,16.145c23.011,0,46.021,0,69.032,0v-19.039
		c-1.135-1.422-2.271-2.842-3.443-4.232C513.225,904.393,507.742,898.061,501.554,892.602z"/>
	<path fill-rule="evenodd" clip-rule="evenodd" fill="#979797" d="M256.999,33.359c6.641,1.893,13.422,2.815,20.213,0.754
		c12.193-3.698,16.809-14.697,10.448-24.672c-3.013-4.725-7.549-5.957-13-3.531c-4.82,2.145-7.842,7.542-6.136,11.868
		c0.848,2.15,2.433,4.431,4.332,5.625c1.776,1.117,4.409,0.877,7.25,1.328c-2.105,1.337-4.016,3.049-6.252,3.867
		c-4.862,1.779-10.125,2.244-15.006,0.72c-15.375-4.8-25.433-14.867-30.801-29.319h-4.955c0.109,0.546,0.238,1.085,0.405,1.613
		C228.792,18.36,240.343,28.613,256.999,33.359z"/>
	<path fill-rule="evenodd" clip-rule="evenodd" fill="#979797" d="M237.263,809.022c6.292-2.49,12.611-4.35,19.316-1.086
		c0.151-0.318,0.301-0.637,0.452-0.955c-4.34-3.191-8.511-6.652-13.052-9.523c-10.377-6.559-22.095-8.818-34.113-9.363
		c-9.015-0.408-18.063-0.08-27.134-0.08c31.457-9.785,59.123-4.289,82.319,20.543c-0.092-0.678-0.07-0.969-0.173-1.207
		c-2.862-6.629-5.675-13.281-8.643-19.863c-0.917-2.029-2.015-4.076-3.446-5.76c-12.308-14.477-27.936-20.885-46.869-18.656
		c-12.202,1.436-22.451,7.35-32.373,14.24c-7.761,5.389-16.053,10.012-24.115,14.965c-0.694,0.426-1.436,0.777-2.869,1.545
		c1.309,0,1.775,0.01,2.24,0c9.347-0.205,18,1.947,25.745,7.383c2.074,1.455,4.307,2.701,6.534,3.918
		c9.777,5.332,19.923,9.477,31.285,9.84C221.229,815.247,229.254,812.192,237.263,809.022z"/>
	<path fill-rule="evenodd" clip-rule="evenodd" fill="#979797" d="M311.548,930.969c-0.606-5.492-1.438-10.197-1.597-14.926
		c-0.804-24.127-19.746-44.51-43.736-47.188c-9.571-1.066-18.636,0.91-27.765,3.223c-10.771,2.729-21.609,5.205-32.058,7.705
		c0.045,0.018,0.732,0.32,1.442,0.557c7.953,2.666,14.805,6.896,20.191,13.48c3.151,3.854,6.565,7.51,10.076,11.039
		c13.267,13.338,29.16,20.021,48.141,18.48c6.271-0.508,12.305-0.277,17.684,3.883c-0.349-1.432-0.858-2.656-1.487-3.818
		c-5.334-9.848-13.284-17.039-22.978-22.406c-11.07-6.129-22.747-10.814-34.866-14.418c-0.93-0.277-1.858-0.555-2.787-0.83
		C273.35,887.588,297.559,900.971,311.548,930.969z"/>
	<path fill-rule="evenodd" clip-rule="evenodd" fill="#979797" d="M189.94,485.955c1.816,1.149,2.928,1.914,4.097,2.582
		c18.18,10.389,37.839,14.271,58.602,13.313c10.024-0.461,19.529-2.871,28.184-7.993c4.051-2.397,7.768-5.362,11.636-8.069
		c-0.144-0.456-0.289-0.912-0.432-1.368c-20.116-3.867-40.266-0.054-60.458,0.145c19.329-5.124,39.193-5.218,59.246-5.479
		c-0.296-0.527-0.377-0.818-0.566-0.982c-11.334-9.917-24.207-16.105-39.576-15.831c-16.939,0.303-32.371,5.858-46.85,14.241
		C199.147,479.221,194.853,482.587,189.94,485.955z"/>
	<path fill-rule="evenodd" clip-rule="evenodd" fill="#979797" d="M84.665,531.578c-1.137-4.769-1.267-9.777-1.854-14.691
		c-9.817,14.243-14.022,30.696-15.737,48.092c-4.29-14.356,5.995-45.119,18.386-54.818c0,0,1.677-1.354,1.987-2.454
		c-5.297,3.414-10.253,6.046-14.56,9.487c-13.928,11.122-24.859,30.031-13.75,53.487c3.089,6.524,6.039,13.115,9.241,20.087
		c0.858-7.629,1.877-10.234,5.775-16.992c2.681-4.646,5.205-9.396,7.519-14.234C85.945,550.607,86.994,541.341,84.665,531.578z"/>
	<path fill-rule="evenodd" clip-rule="evenodd" fill="#979797" d="M248.989,411.987c1.731,9.604,4.276,18.691,7.974,27.45
		c2.716,6.433,6.069,12.479,10.815,17.665c7.502,8.2,16.806,12.755,28.486,13.949c-9.451-11.034-19.209-21.135-25.58-33.763
		c9.096,10.71,17.325,22.215,28.911,31.059C302.276,447.285,271.376,413.03,248.989,411.987z"/>
	<path fill-rule="evenodd" clip-rule="evenodd" fill="#979797" d="M339.748,375.873c-9.283-4.064-19.655-5.645-30.272-8.544
		c2.38,3.202,4.416,5.484,5.913,8.078c1.547,2.681,2.675,5.623,3.794,8.524c1.018,2.637,1.725,5.392,2.662,8.062
		c4.18,11.917,11.641,21.155,22.746,27.252c3.923,2.153,8.243,3.646,10.791,7.902c-0.728-4.069-1.594-7.969-2.987-11.674
		c-4.843-12.887-13.628-23.05-22.995-32.78c17.378,11.004,26.998,26.922,29.62,47.25c0.843-3.857,1.255-7.545,1.949-11.18
		C364.143,402.13,355.275,382.672,339.748,375.873z"/>
	<path fill-rule="evenodd" clip-rule="evenodd" fill="#979797" d="M90.424,544.677c-0.073-0.063-0.286,0.034-0.698,0.096
		c7.901,18.507,6.815,36.583-2.759,54.215c4.16-15.59,8.465-31.159,1.966-47.815c-0.6,5.583-3.076,9.711-5.916,13.685
		c-2.822,3.952-5.012,8.26-5.39,13.136c-0.393,5.051-0.454,10.143-0.347,15.209c0.191,9.007,3.771,17.889,0.787,26.611
		c4.593-4.143,9.546-8.116,13.884-12.675c3.521-3.7,7.044-7.738,9.28-12.263C109.073,579.002,103.973,556.409,90.424,544.677z"/>
	<path fill-rule="evenodd" clip-rule="evenodd" fill="#979797" d="M282.18,358.098c0.304,6.785,0.493,13.312,0.926,19.822
		c0.224,3.395,0.437,6.892,1.407,10.118c4.621,15.371,18.889,30.11,44.773,25.767c-18.862-5.898-31.062-17.767-37.418-35.591
		c8.635,13.554,18.333,25.947,33.631,31.544c-1.434-3.417-3.47-6.894-4.356-10.644c-2.454-10.374-7.771-18.358-17.267-23.523
		C295.626,371.103,287.578,366.279,282.18,358.098z"/>
	<path fill-rule="evenodd" clip-rule="evenodd" fill="#979797" d="M354.759,433.43c-3.684-3.071-7.22-6.362-11.116-9.153
		c-2.725-1.951-5.797-3.658-8.968-4.691c-5.885-1.916-11.972-0.973-18.022-0.424c-5.802,0.527-11.641,0.74-17.468,0.852
		c-1.819,0.034-3.651-0.711-5.556-1.117c3.671,4.614,7.114,9.098,10.732,13.433c2.498,2.995,5.169,5.854,7.89,8.652
		c3.077,3.165,6.9,5.084,11.188,6.053c15.451,3.488,28.27-0.833,38.307-13.196c-17.353,6.483-34.103,6.155-49.54-5.387
		C326.185,433.633,340.179,437.844,354.759,433.43z"/>
	<path fill-rule="evenodd" clip-rule="evenodd" fill="#979797" d="M208.923,551.538c2.856-0.718,5.295-1.308,7.723-1.944
		c10.862-2.848,21.688-5.81,31.735-11.001c11.129-5.752,18.188-14.989,22.933-26.652c-7.461-3.305-14.407-2.278-21.148,0.542
		C231.681,520.213,219.192,534.36,208.923,551.538z"/>
	<path fill-rule="evenodd" clip-rule="evenodd" fill="#979797" d="M85.99,442.112c-1.147,2.667-2.082,5.407-2.882,8.187
		c-4.388,15.244-4.482,30.431,0.869,45.478c0.792,2.226,2.103,4.268,3.175,6.395c0.5-0.159,1.001-0.317,1.503-0.476
		c-0.36-2.016-0.478-4.113-1.12-6.034c-4.134-12.39-6.277-24.984-4.221-38.042C84.132,452.439,85.095,447.281,85.99,442.112z"/>
	<path fill-rule="evenodd" clip-rule="evenodd" fill="#979797" d="M501.442,119.983c-2.564,2.762-4.997,5.833-6.711,9.164
		c-8.749,17.018-6.968,33.505,3.342,49.708c-2.571-20.27,1.026-38.626,14.516-54.291c-8.036,14.9-12.87,30.561-11.832,47.481
		c2.54-2.798,4.819-5.679,7.474-8.164c7.248-6.785,12.139-14.773,13.123-24.798c0.322-3.285,0.488-6.584,0.646-9.884v-23.936
		C514.789,108.958,506.029,115.042,501.442,119.983z"/>
	<path fill-rule="evenodd" clip-rule="evenodd" fill="#979797" d="M509.39,170.694c-2.155,3.889-4.468,7.515-9.41,9.811
		c6.173,0.442,11.362-0.433,16.241-2.284c1.947-0.738,3.875-1.562,5.779-2.437V158.58
		C516.771,161.158,512.488,165.107,509.39,170.694z"/>
	<path fill-rule="evenodd" clip-rule="evenodd" fill="#979797" d="M505.264,188.102c3.574,1.159,7.304,2.523,10.981,2.565
		c1.951,0.023,3.872-0.129,5.755-0.423v-11.097c-7.809,2.527-15.942,4.011-23.273,5.814
		C500.357,185.766,502.701,187.27,505.264,188.102z"/>
	<path fill-rule="evenodd" clip-rule="evenodd" fill="#979797" d="M440.683,234.389c-3.109,5.751-5.813,11.662-6.669,18.304
		c0.365-0.89,0.741-1.776,1.094-2.67c5.481-13.883,12.964-26.576,23.994-36.703c6.51-5.978,14-10.883,20.998-16.337
		c4.345-3.385,8.594-6.895,13.275-10.664c-2.14-1.12-3.568-1.868-4.986-2.61c-4.266,6.437-10.307,10.624-16.176,14.973
		C459.166,208.354,448.434,220.054,440.683,234.389z"/>
	<path fill-rule="evenodd" clip-rule="evenodd" fill="#979797" d="M112.084,302.622c9.402-5.167,19.117-8.492,30.206-7.525
		c7.647,0.667,15.437,0.332,23.12-0.185c15.033-1.012,28.009-6.669,38.11-18.204c2.509-2.868,5.124-5.644,7.721-8.434
		c5.438-5.841,11.111-11.316,20.454-11.974c-1.167-0.527-1.586-0.757-2.032-0.91c-1.293-0.445-2.58-0.92-3.898-1.275
		c-12.599-3.402-24.973-2.444-37.133,2.041c-15.174,5.596-29.565,12.803-43.387,21.179c-0.576,0.349-1.215,0.598-1.823,0.894
		c27.31-27.174,58.95-38.316,96.959-26.195c-3.655-3.078-7.383-5.802-10.626-9.014c-21.384-21.168-52.762-22.297-75.547-2.587
		c-7.546,6.528-13.352,14.467-18.7,22.817c-8.66,13.525-15.555,28.184-26.106,40.542c0.191,0.037,0.302,0.097,0.364,0.066
		C110.544,303.453,111.317,303.044,112.084,302.622z"/>
	<path fill-rule="evenodd" clip-rule="evenodd" fill="#979797" d="M130,176.496c5.711,5.16,11.876,9.854,18.099,14.401
		c9.898,7.232,21.04,10.111,33.244,8.337c6.49-0.943,12.835-1.243,18.629,2.758c-14.094-21.27-37.036-26.763-59.268-33.516
		c27.933-0.222,49.049,12.669,65.598,34.398c-1.072-3.72-2.37-7.169-3.513-10.668c-0.845-2.584-1.118-5.412-2.284-7.823
		c-5.658-11.68-14.093-20.886-25.685-26.843c-10.061-5.172-20.667-7.122-31.749-3.467c-11.275,3.718-22.511,7.553-33.563,11.27
		c0.729,0.254,1.809,0.678,2.918,1.008C119.097,168.333,124.796,171.794,130,176.496z"/>
	<path fill-rule="evenodd" clip-rule="evenodd" fill="#979797" d="M86.909,511.217c-0.096-0.001-0.198,0.209-0.475,0.521
		c17.924,9.147,28.672,23.721,32.618,43.394c-6.794-14.635-13.464-29.348-29.126-37.972c3.117,4.671,3.86,9.427,4.226,14.297
		c0.366,4.842,1.444,9.554,4.278,13.539c2.935,4.129,6.15,8.078,9.479,11.9c5.917,6.793,14.356,11.319,17.653,19.928
		c0.873-6.124,2.13-12.348,2.54-18.627c0.333-5.097,0.45-10.455-0.732-15.361C123.22,525.623,104.829,511.544,86.909,511.217z"/>
</g>
</svg>
