<?xml version="1.0" encoding="utf-8"?>
<!-- Generator: Adobe Illustrator 16.0.0, SVG Export Plug-In . SVG Version: 6.00 Build 0)  -->
<!DOCTYPE svg PUBLIC "-//W3C//DTD SVG 1.1//EN" "http://www.w3.org/Graphics/SVG/1.1/DTD/svg11.dtd">
<svg version="1.1" id="Layer_1" xmlns="http://www.w3.org/2000/svg" xmlns:xlink="http://www.w3.org/1999/xlink" x="0px" y="0px"
	 width="256px" height="256px" viewBox="0 0 256 256" enable-background="new 0 0 256 256" xml:space="preserve">
<g>
	<defs>
		<rect id="SVGID_1_" width="256" height="256"/>
	</defs>
	<clipPath id="SVGID_2_">
		<use xlink:href="#SVGID_1_"  overflow="visible"/>
	</clipPath>
	<g clip-path="url(#SVGID_2_)">
		<defs>
			<path id="SVGID_3_" d="M30,0C13.418,0,0,13.418,0,30v196c0,16.582,13.418,30,30,30h196c16.582,0,30-13.418,30-30V30
				c0-16.582-13.418-30-30-30H30z"/>
		</defs>
		<clipPath id="SVGID_4_">
			<use xlink:href="#SVGID_3_"  overflow="visible"/>
		</clipPath>
		<rect x="-127.999" clip-path="url(#SVGID_4_)" fill="#FFFFFF" width="511.731" height="255.971"/>
		<polygon clip-path="url(#SVGID_4_)" fill="#CF142B" points="102.277,153.506 102.277,255.972 153.456,255.972 153.456,153.506 
			383.732,153.506 383.732,102.333 153.456,102.333 153.456,0 102.277,0 102.277,102.333 -128,102.333 -128,153.506 		"/>
		<polygon clip-path="url(#SVGID_4_)" fill="#00247D" points="170.521,82.858 170.521,0 336.204,0 		"/>
		<polygon clip-path="url(#SVGID_4_)" fill="#00247D" points="170.521,173.113 170.521,255.971 336.204,255.971 		"/>
		<polygon clip-path="url(#SVGID_4_)" fill="#00247D" points="85.211,173.113 85.211,255.971 -80.472,255.971 		"/>
		<polygon clip-path="url(#SVGID_4_)" fill="#00247D" points="85.211,82.858 85.211,0 -80.472,0 		"/>
		<polyline clip-path="url(#SVGID_4_)" fill="#CF142B" points="383.731,0 355.309,0 185.003,85.322 213.426,85.322 384,0 		"/>
		<polyline clip-path="url(#SVGID_4_)" fill="#CF142B" points="70.729,170.646 42.306,170.646 -128,255.968 -99.577,255.968 
			70.997,170.646 		"/>
		<polygon clip-path="url(#SVGID_4_)" fill="#CF142B" points="14.109,85.388 42.533,85.388 -128,0 -128,14.31 		"/>
		<polygon clip-path="url(#SVGID_4_)" fill="#CF142B" points="241.532,170.612 213.108,170.612 383.641,256 383.641,241.69 		"/>
	</g>
	<g clip-path="url(#SVGID_2_)">
		<defs>
			<path id="SVGID_5_" d="M30.5,15.5c-8.25,0-15,6.75-15,15v195c0,8.25,6.75,15,15,15h195c8.25,0,15-6.75,15-15v-195
				c0-8.25-6.75-15-15-15H30.5z"/>
		</defs>
		<clipPath id="SVGID_6_">
			<use xlink:href="#SVGID_5_"  overflow="visible"/>
		</clipPath>
		<defs>
			<filter id="Adobe_OpacityMaskFilter" filterUnits="userSpaceOnUse" x="-97" y="-97" width="450" height="450">
				<feColorMatrix  type="matrix" values="1 0 0 0 0  0 1 0 0 0  0 0 1 0 0  0 0 0 1 0"/>
			</filter>
		</defs>
		<mask maskUnits="userSpaceOnUse" x="-97" y="-97" width="450" height="450" id="SVGID_7_">
			<g filter="url(#Adobe_OpacityMaskFilter)">
				
					<linearGradient id="SVGID_8_" gradientUnits="userSpaceOnUse" x1="0" y1="255.999" x2="1" y2="255.999" gradientTransform="matrix(216.1875 -216.1875 -216.1875 -216.1875 55363.9063 55580)">
					<stop  offset="0" style="stop-color:#1A1A1A"/>
					<stop  offset="0.3684" style="stop-color:#1C1C1C"/>
					<stop  offset="0.59" style="stop-color:#242424"/>
					<stop  offset="0.7726" style="stop-color:#333333"/>
					<stop  offset="0.9332" style="stop-color:#474747"/>
					<stop  offset="0.9694" style="stop-color:#4D4D4D"/>
					<stop  offset="1" style="stop-color:#333333"/>
				</linearGradient>
				<polygon clip-path="url(#SVGID_6_)" fill="url(#SVGID_8_)" points="-97,128 128,-97 353,128 128,353 				"/>
			</g>
		</mask>
		
			<linearGradient id="SVGID_9_" gradientUnits="userSpaceOnUse" x1="0" y1="255.999" x2="1" y2="255.999" gradientTransform="matrix(216.1875 -216.1875 -216.1875 -216.1875 55363.9063 55580)">
			<stop  offset="0" style="stop-color:#FFFFFF"/>
			<stop  offset="0.8361" style="stop-color:#FFFFFF"/>
			<stop  offset="0.9694" style="stop-color:#FFFFFF"/>
			<stop  offset="1" style="stop-color:#FFFFFF"/>
		</linearGradient>
		<polygon clip-path="url(#SVGID_6_)" mask="url(#SVGID_7_)" fill="url(#SVGID_9_)" points="-97,128 128,-97 353,128 128,353 		"/>
	</g>
	<g clip-path="url(#SVGID_2_)">
		<defs>
			<rect id="SVGID_10_" width="256" height="256"/>
		</defs>
		<clipPath id="SVGID_11_">
			<use xlink:href="#SVGID_10_"  overflow="visible"/>
		</clipPath>
		<g opacity="0.1" clip-path="url(#SVGID_11_)">
			<g>
				<defs>
					<rect id="SVGID_12_" width="256" height="256"/>
				</defs>
				<clipPath id="SVGID_13_">
					<use xlink:href="#SVGID_12_"  overflow="visible"/>
				</clipPath>
				<path clip-path="url(#SVGID_13_)" fill="#231F20" d="M226,15.5c7.995,0,14.5,6.505,14.5,14.5v196c0,7.995-6.505,14.5-14.5,14.5
					H30c-7.995,0-14.5-6.505-14.5-14.5V30c0-7.995,6.505-14.5,14.5-14.5H226 M226,0H30C13.5,0,0,13.5,0,30v196c0,16.5,13.5,30,30,30
					h196c16.5,0,30-13.5,30-30V30C256,13.5,242.5,0,226,0"/>
			</g>
		</g>
	</g>
</g>
</svg>
