<?xml version="1.0" encoding="UTF-8" standalone="no"?>
<!-- Created with Inkscape (http://www.inkscape.org/) -->

<svg
   xmlns:dc="http://purl.org/dc/elements/1.1/"
   xmlns:cc="http://creativecommons.org/ns#"
   xmlns:rdf="http://www.w3.org/1999/02/22-rdf-syntax-ns#"
   xmlns:svg="http://www.w3.org/2000/svg"
   xmlns="http://www.w3.org/2000/svg"
   xmlns:xlink="http://www.w3.org/1999/xlink"
   xmlns:sodipodi="http://sodipodi.sourceforge.net/DTD/sodipodi-0.dtd"
   xmlns:inkscape="http://www.inkscape.org/namespaces/inkscape"
   width="67.733002mm"
   height="67.733002mm"
   viewBox="0 0 67.733002 67.733002"
   version="1.1"
   id="svg8"
   inkscape:version="0.92.3 (2405546, 2018-03-11)"
   sodipodi:docname="f.svg">
  <defs
     id="defs2"><rect
   height="256"
   width="256"
   id="SVGID_1_"
   x="0"
   y="0" />
<path
   d="M 30,0 C 13.418,0 0,13.418 0,30 v 196 c 0,16.582 13.418,30 30,30 h 196 c 16.582,0 30,-13.418 30,-30 V 30 C 256,13.418 242.582,0 226,0 Z"
   id="SVGID_3_"
   inkscape:connector-curvature="0" />
<path
   d="m 30.5,15.5 c -8.25,0 -15,6.75 -15,15 v 195 c 0,8.25 6.75,15 15,15 h 195 c 8.25,0 15,-6.75 15,-15 v -195 c 0,-8.25 -6.75,-15 -15,-15 z"
   id="SVGID_5_"
   inkscape:connector-curvature="0" />
<filter
   height="450"
   width="450"
   y="-97"
   x="-97"
   filterUnits="userSpaceOnUse"
   id="Adobe_OpacityMaskFilter">
				<feColorMatrix
   id="feColorMatrix3753"
   values="1 0 0 0 0  0 1 0 0 0  0 0 1 0 0  0 0 0 1 0"
   type="matrix" />

			</filter>
<rect
   height="256"
   width="256"
   id="SVGID_10_"
   x="0"
   y="0" />
<rect
   height="256"
   width="256"
   id="SVGID_12_"
   x="0"
   y="0" />

	<defs
   id="defs3714">
		<rect
   y="0"
   x="0"
   id="rect3827"
   width="256"
   height="256" />

	</defs>

	<clipPath
   id="SVGID_2_">
		<use
   height="100%"
   width="100%"
   y="0"
   x="0"
   style="overflow:visible"
   xlink:href="#SVGID_1_"
   overflow="visible"
   id="use3716" />

	</clipPath>

	
	
	
<style
   id="style4064"
   type="text/css">
   <![CDATA[
    .fil0 {fill:#3B5998}
    .fil1 {fill:white}
   ]]>
  </style>

  
  
  
 <clipPath
   id="SVGID_2_-7">
  <use
     height="100%"
     width="100%"
     y="0"
     x="0"
     style="overflow:visible"
     xlink:href="#SVGID_1_"
     overflow="visible"
     id="use3716-3" />
</clipPath>
<linearGradient
   id="SVGID_9_"
   gradientUnits="userSpaceOnUse"
   x1="0"
   y1="255.99899"
   x2="1"
   y2="255.99899"
   gradientTransform="matrix(216.1875,-216.1875,-216.1875,-216.1875,55363.906,55580)">
  <stop
     offset="0"
     style="stop-color:#FFFFFF"
     id="stop3778" />
  <stop
     offset="0.8361"
     style="stop-color:#FFFFFF"
     id="stop3780" />
  <stop
     offset="0.9694"
     style="stop-color:#FFFFFF"
     id="stop3782" />
  <stop
     offset="1"
     style="stop-color:#FFFFFF"
     id="stop3784" />
</linearGradient>
<clipPath
   id="SVGID_6_">
  <use
     height="100%"
     width="100%"
     y="0"
     x="0"
     style="overflow:visible"
     xlink:href="#SVGID_5_"
     overflow="visible"
     id="use3750" />
</clipPath>
<mask
   maskUnits="userSpaceOnUse"
   x="-97"
   y="-97"
   width="450"
   height="450"
   id="SVGID_7_">
  <g
     style="filter:url(#Adobe_OpacityMaskFilter-7)"
     id="g3775">
    <linearGradient
       id="SVGID_8_"
       gradientUnits="userSpaceOnUse"
       x1="0"
       y1="255.99899"
       x2="1"
       y2="255.99899"
       gradientTransform="matrix(216.1875,-216.1875,-216.1875,-216.1875,55363.906,55580)">
      <stop
         offset="0"
         style="stop-color:#1A1A1A"
         id="stop3758" />
      <stop
         offset="0.3684"
         style="stop-color:#1C1C1C"
         id="stop3760" />
      <stop
         offset="0.59"
         style="stop-color:#242424"
         id="stop3762" />
      <stop
         offset="0.7726"
         style="stop-color:#333333"
         id="stop3764" />
      <stop
         offset="0.9332"
         style="stop-color:#474747"
         id="stop3766" />
      <stop
         offset="0.9694"
         style="stop-color:#4D4D4D"
         id="stop3768" />
      <stop
         offset="1"
         style="stop-color:#333333"
         id="stop3770" />
    </linearGradient>
    <polygon
       style="fill:url(#SVGID_8_)"
       clip-path="url(#SVGID_6_)"
       points="128,-97 353,128 128,353 -97,128 "
       id="polygon3773" />
  </g>
</mask>
<filter
   height="450"
   width="450"
   y="-97"
   x="-97"
   filterUnits="userSpaceOnUse"
   id="Adobe_OpacityMaskFilter-7">
  <feColorMatrix
     id="feColorMatrix3753-4"
     values="1 0 0 0 0  0 1 0 0 0  0 0 1 0 0  0 0 0 1 0"
     type="matrix" />
</filter>
<linearGradient
   id="linearGradient4453"
   gradientUnits="userSpaceOnUse"
   x1="0"
   y1="255.99899"
   x2="1"
   y2="255.99899"
   gradientTransform="matrix(216.1875,-216.1875,-216.1875,-216.1875,55363.906,55580)">
  <stop
     offset="0"
     style="stop-color:#1A1A1A"
     id="stop4439" />
  <stop
     offset="0.3684"
     style="stop-color:#1C1C1C"
     id="stop4441" />
  <stop
     offset="0.59"
     style="stop-color:#242424"
     id="stop4443" />
  <stop
     offset="0.7726"
     style="stop-color:#333333"
     id="stop4445" />
  <stop
     offset="0.9332"
     style="stop-color:#474747"
     id="stop4447" />
  <stop
     offset="0.9694"
     style="stop-color:#4D4D4D"
     id="stop4449" />
  <stop
     offset="1"
     style="stop-color:#333333"
     id="stop4451" />
</linearGradient>
<clipPath
   id="clipPath4457">
  <use
     height="100%"
     width="100%"
     y="0"
     x="0"
     style="overflow:visible"
     xlink:href="#SVGID_5_"
     overflow="visible"
     id="use4455" />
</clipPath>
<path
   inkscape:connector-curvature="0"
   id="path3848"
   d="m 30.5,15.5 c -8.25,0 -15,6.75 -15,15 v 195 c 0,8.25 6.75,15 15,15 h 195 c 8.25,0 15,-6.75 15,-15 v -195 c 0,-8.25 -6.75,-15 -15,-15 z" />
<filter
   id="filter3855"
   filterUnits="userSpaceOnUse"
   x="-97"
   y="-97"
   width="450"
   height="450">
  <feColorMatrix
     type="matrix"
     values="1 0 0 0 0  0 1 0 0 0  0 0 1 0 0  0 0 0 1 0"
     id="feColorMatrix3853" />
</filter>
<clipPath
   id="SVGID_2_-72">
  <use
     height="100%"
     width="100%"
     y="0"
     x="0"
     style="overflow:visible"
     xlink:href="#SVGID_1_"
     overflow="visible"
     id="use3716-2" />
</clipPath>
<clipPath
   id="SVGID_11_">
  <use
     height="100%"
     width="100%"
     y="0"
     x="0"
     style="overflow:visible"
     xlink:href="#SVGID_10_"
     overflow="visible"
     id="use3794" />
</clipPath>
<clipPath
   id="SVGID_13_">
  <use
     height="100%"
     width="100%"
     y="0"
     x="0"
     style="overflow:visible"
     xlink:href="#SVGID_12_"
     overflow="visible"
     id="use3800" />
</clipPath>
<rect
   y="0"
   x="0"
   id="rect3876"
   width="256"
   height="256" />
<rect
   y="0"
   x="0"
   id="rect3881"
   width="256"
   height="256" />
</defs>
  <sodipodi:namedview
     id="base"
     pagecolor="#ffffff"
     bordercolor="#666666"
     borderopacity="1.0"
     inkscape:pageopacity="0.0"
     inkscape:pageshadow="2"
     inkscape:zoom="1.3461607"
     inkscape:cx="292.25921"
     inkscape:cy="146.86522"
     inkscape:document-units="mm"
     inkscape:current-layer="layer1"
     showgrid="false"
     inkscape:snap-page="true"
     inkscape:snap-grids="true"
     inkscape:snap-bbox="true"
     inkscape:bbox-paths="true"
     inkscape:bbox-nodes="true"
     inkscape:snap-bbox-midpoints="true"
     inkscape:snap-bbox-edge-midpoints="true"
     inkscape:snap-global="true"
     inkscape:window-width="1920"
     inkscape:window-height="1001"
     inkscape:window-x="-9"
     inkscape:window-y="-9"
     inkscape:window-maximized="1" />
  <metadata
     id="metadata5">
    <rdf:RDF>
      <cc:Work
         rdf:about="">
        <dc:format>image/svg+xml</dc:format>
        <dc:type
           rdf:resource="http://purl.org/dc/dcmitype/StillImage" />
        <dc:title></dc:title>
      </cc:Work>
    </rdf:RDF>
  </metadata>
  <g
     inkscape:label="Layer 1"
     inkscape:groupmode="layer"
     id="layer1"
     style="display:inline;opacity:0.98000004"
     transform="translate(0,-229.267)">
    <g
       id="g4094"
       transform="matrix(0.31959893,0,0,0.31959893,228.58248,224.41699)">
      <path
         style="clip-rule:evenodd;fill:#3b5998;fill-rule:evenodd;stroke-width:0.26458332;image-rendering:optimizeQuality;shape-rendering:geometricPrecision;text-rendering:geometricPrecision"
         inkscape:connector-curvature="0"
         class="fil0"
         d="m -690.34583,15.175313 c -13.75834,0 -24.87084,11.112499 -24.87084,24.870833 V 202.23573 c 0,13.75833 11.1125,24.87083 24.87084,24.87083 h 162.18958 c 13.75833,0 24.87083,-11.1125 24.87083,-24.87083 V 40.046146 c 0,-13.758334 -11.1125,-24.870833 -24.87083,-24.870833 z"
         id="path4069" />
    </g>
    <path
       id="path4071"
       d="m 54.918083,260.3853 -1.01473,9.80902 h -7.86413 v 26.72114 h -11.83848 v -26.72114 h -5.91923 v -9.80902 h 5.91923 v -5.91924 c 0,-8.03325 3.29787,-12.76864 12.76865,-12.76864 h 7.86414 v 9.80902 h -4.90452 c -3.6361,0 -3.88979,1.35297 -3.88979,3.97435 v 4.90451 z"
       class="fil1"
       inkscape:connector-curvature="0"
       style="clip-rule:evenodd;fill:#ffffff;fill-rule:evenodd;stroke-width:0.08456055;image-rendering:optimizeQuality;shape-rendering:geometricPrecision;text-rendering:geometricPrecision" />
  </g>
  <g
     inkscape:groupmode="layer"
     id="layer3"
     inkscape:label="Layer 2"
     transform="translate(0,-229.267)"
     style="display:inline"
     sodipodi:insensitive="true">
    <g
       clip-path="url(#SVGID_2_-7)"
       id="g3789"
       transform="matrix(0.26458333,0,0,0.26458333,-1.7514984e-4,229.26684)">
      <defs
         id="defs3748">
        <path
           inkscape:connector-curvature="0"
           id="path4599"
           d="m 30.5,15.5 c -8.25,0 -15,6.75 -15,15 v 195 c 0,8.25 6.75,15 15,15 h 195 c 8.25,0 15,-6.75 15,-15 v -195 c 0,-8.25 -6.75,-15 -15,-15 z" />
      </defs>
      <clipPath
         id="clipPath4463">
        <use
           height="100%"
           width="100%"
           y="0"
           x="0"
           style="overflow:visible"
           xlink:href="#SVGID_5_"
           overflow="visible"
           id="use4461" />
      </clipPath>
      <defs
         id="defs3756">
        <filter
           id="filter4606"
           filterUnits="userSpaceOnUse"
           x="-97"
           y="-97"
           width="450"
           height="450">
          <feColorMatrix
             type="matrix"
             values="1 0 0 0 0  0 1 0 0 0  0 0 1 0 0  0 0 0 1 0"
             id="feColorMatrix4604" />
        </filter>
      </defs>
      <mask
         maskUnits="userSpaceOnUse"
         x="-97"
         y="-97"
         width="450"
         height="450"
         id="mask4488">
        <g
           style="filter:url(#Adobe_OpacityMaskFilter-7)"
           id="g4486">
          <linearGradient
             id="linearGradient4482"
             gradientUnits="userSpaceOnUse"
             x1="0"
             y1="255.99899"
             x2="1"
             y2="255.99899"
             gradientTransform="matrix(216.1875,-216.1875,-216.1875,-216.1875,55363.906,55580)">
            <stop
               offset="0"
               style="stop-color:#1A1A1A"
               id="stop4468" />
            <stop
               offset="0.3684"
               style="stop-color:#1C1C1C"
               id="stop4470" />
            <stop
               offset="0.59"
               style="stop-color:#242424"
               id="stop4472" />
            <stop
               offset="0.7726"
               style="stop-color:#333333"
               id="stop4474" />
            <stop
               offset="0.9332"
               style="stop-color:#474747"
               id="stop4476" />
            <stop
               offset="0.9694"
               style="stop-color:#4D4D4D"
               id="stop4478" />
            <stop
               offset="1"
               style="stop-color:#333333"
               id="stop4480" />
          </linearGradient>
          <polygon
             style="fill:url(#SVGID_8_)"
             clip-path="url(#SVGID_6_)"
             points="353,128 128,353 -97,128 128,-97 "
             id="polygon4484" />
        </g>
      </mask>
      <linearGradient
         id="linearGradient4498"
         gradientUnits="userSpaceOnUse"
         x1="0"
         y1="255.99899"
         x2="1"
         y2="255.99899"
         gradientTransform="matrix(216.1875,-216.1875,-216.1875,-216.1875,55363.906,55580)">
        <stop
           offset="0"
           style="stop-color:#FFFFFF"
           id="stop4490" />
        <stop
           offset="0.8361"
           style="stop-color:#FFFFFF"
           id="stop4492" />
        <stop
           offset="0.9694"
           style="stop-color:#FFFFFF"
           id="stop4494" />
        <stop
           offset="1"
           style="stop-color:#FFFFFF"
           id="stop4496" />
      </linearGradient>
      <polygon
         style="fill:url(#SVGID_9_)"
         clip-path="url(#SVGID_6_)"
         mask="url(#SVGID_7_)"
         points="353,128 128,353 -97,128 128,-97 "
         id="polygon3787" />
    </g>
    <g
       style="opacity:0.98000004"
       clip-path="url(#SVGID_2_-72)"
       id="g3809"
       transform="matrix(0.26458333,0,0,0.26458333,-7.5498369e-6,229.26668)">
      <defs
         id="defs3792">
        <rect
           y="0"
           x="0"
           id="rect4731"
           width="256"
           height="256" />
      </defs>
      <clipPath
         id="clipPath4645">
        <use
           height="100%"
           width="100%"
           y="0"
           x="0"
           style="overflow:visible"
           xlink:href="#SVGID_10_"
           overflow="visible"
           id="use4643" />
      </clipPath>
      <g
         style="opacity:0.1"
         clip-path="url(#SVGID_11_)"
         id="g3807">
        <g
           id="g3805">
          <defs
             id="defs3798">
            <rect
               y="0"
               x="0"
               id="rect4736"
               width="256"
               height="256" />
          </defs>
          <clipPath
             id="clipPath4651">
            <use
               height="100%"
               width="100%"
               y="0"
               x="0"
               style="overflow:visible"
               xlink:href="#SVGID_12_"
               overflow="visible"
               id="use4649" />
          </clipPath>
          <path
             style="fill:#231f20"
             inkscape:connector-curvature="0"
             clip-path="url(#SVGID_13_)"
             d="m 226,15.5 c 7.995,0 14.5,6.505 14.5,14.5 v 196 c 0,7.995 -6.505,14.5 -14.5,14.5 H 30 c -7.995,0 -14.5,-6.505 -14.5,-14.5 V 30 C 15.5,22.005 22.005,15.5 30,15.5 H 226 M 226,0 H 30 C 13.5,0 0,13.5 0,30 v 196 c 0,16.5 13.5,30 30,30 h 196 c 16.5,0 30,-13.5 30,-30 V 30 C 256,13.5 242.5,0 226,0"
             id="path3803" />
        </g>
      </g>
    </g>
  </g>
</svg>
